<svg width="20" height="12" fill="none" xmlns="http://www.w3.org/2000/svg"><path fill-rule="evenodd" clip-rule="evenodd" d="M5.461 1.603A3423.15 3423.15 0 012.18 8.69l-.8 1.72-.69.01-.69.01v1.499h7.051v-1.5h-.513c-.282 0-.512-.013-.512-.028 0-.015.175-.456.389-.979.214-.523.441-1.083.505-1.244l.117-.292.107.146c.14.193 2.096 2.943 2.517 3.54.24.341.34.454.371.42.024-.025.645-.893 1.38-1.93.735-1.036 1.385-1.95 1.443-2.029l.106-.144.254.62c.56 1.37.76 1.865.76 1.892 0 .015-.231.027-.514.027h-.512v1.5H20v-1.498l-.69-.01-.69-.01-.18-.384c-.099-.212-.32-.69-.49-1.061a4168.09 4168.09 0 01-2.307-4.995C13.89.174 13.96.32 13.913.378c-.025.03-.91 1.348-1.968 2.93C10.888 4.89 10.013 6.185 10 6.185c-.022 0-1.67-2.462-3.288-4.911C6.37.756 6.08.333 6.068.333c-.011 0-.285.571-.607 1.27z" 
fill="#429470"/></svg>