<?xml version="1.0" encoding="UTF-8"?>
<!-- Generator: Adobe Illustrator 16.0.0, SVG Export Plug-In . SVG Version: 6.00 Build 0)  -->
<!DOCTYPE svg PUBLIC "-//W3C//DTD SVG 1.1//EN" "http://www.w3.org/Graphics/SVG/1.1/DTD/svg11.dtd">
<svg version="1.1" id="Layer_1" xmlns="http://www.w3.org/2000/svg" xmlns:xlink="http://www.w3.org/1999/xlink" x="0px" y="0px" width="69.496px" height="50px" viewBox="0 0 69.496 50" enable-background="new 0 0 69.496 50" xml:space="preserve">
<path fill="#FFFFFF" d="M67.606,0H5.25C4.206,0,3.36,0.846,3.36,1.89v28.406l-1.953,2.131c-0.356,0.39-0.871,1.08-1.142,1.533  c0,0-0.3,0.499-0.262,1.271c0.041,0.771,0.39,1.237,0.39,1.237c0.315,0.423,0.898,1.056,1.293,1.407l0.753,0.668  c0.396,0.352,1.043,0.924,1.439,1.274l3.898,3.442c0.396,0.351,1.014,0.32,1.373-0.067l2.614-2.815  c0.36-0.388,0.331-0.991-0.065-1.341l-3.922-3.464c-0.397-0.35-0.743-0.657-0.752-0.665s-0.021-0.019-0.028-0.026  c-0.006-0.004,0.181-0.22,0.416-0.476c0.235-0.258,0.427-0.451,0.426-0.43c0,0.02,0.303-0.272,0.673-0.649l3.378-3.438  c0.371-0.377,0.982-0.382,1.359-0.013l6.522,6.408c0.377,0.37,0.383,0.98,0.013,1.357l-9.39,9.557  c-0.371,0.377-0.982,0.38-1.358,0.01L8.108,46.29c-0.376-0.37-0.701-0.251-0.719,0.277L7.266,50h17.15L23.85,34.187  c-0.019-0.527,0.276-0.651,0.656-0.283l2.369,2.313c0.379,0.367,1.052,0.935,1.497,1.222c0,0,0.45,0.355,1.198,0.355  c0.022,0,0.045,0,0.068,0c0.772,0,1.248-0.42,1.248-0.42c0.432-0.305,1.081-0.934,1.442-1.318l0.689-0.734  c0.245-0.261,0.597-0.629,0.914-0.958h33.676c1.043,0,1.89-0.846,1.89-1.89V1.89C69.496,0.846,68.65,0,67.606,0z M65.716,30.583  H37.637l3.681-3.75c0.37-0.377,0.364-0.988-0.013-1.358l-0.711-0.699l8.225-8.561c0.274-0.287,0.264-0.743-0.024-1.018  c-0.288-0.275-0.743-0.264-1.019,0.024l-8.211,8.546l-1-0.981c-0.377-0.371-0.988-0.363-1.358,0.014l-6.992,7.127  c-0.37,0.377-0.694,0.715-0.702,0.724c-0.009,0.008-0.021,0.034-0.026,0.041c-0.007,0.007-0.323-0.26-0.702-0.628L24.39,25.86  c-0.38-0.368-0.729-0.557-0.777-0.555c-0.048,0.002-0.52-0.39-1.048-0.39H9.167c-0.529,0-0.969,0.385-0.981,0.374  s-0.313,0.08-0.669,0.47L7.14,26.171V3.78h58.577V30.583z M53.93,15.523c0.717,0.717,1.487,1.316,2.271,1.79  c0.788,0.475,1.78,0.475,2.567,0c0.785-0.475,1.555-1.073,2.271-1.79s1.315-1.486,1.79-2.271c0.476-0.787,0.476-1.779,0-2.566  c-0.475-0.785-1.073-1.555-1.79-2.272c-0.716-0.716-1.486-1.314-2.271-1.789c-0.788-0.475-1.779-0.475-2.566,0  C55.417,7.1,54.646,7.698,53.93,8.414c-0.716,0.717-1.315,1.487-1.79,2.271c-0.476,0.788-0.476,1.78,0,2.567  C52.614,14.037,53.213,14.807,53.93,15.523z M55.773,11.054l0.918-0.918l0.917-0.917l0.917-0.918v1.835l-0.917,0.918l-0.917,0.917  l0.917,0.918l0.917,0.917v1.835l-0.917-0.917l-0.917-0.918l-0.918-0.917l-0.917-0.918L55.773,11.054z M9.704,17.209  c0-3.389,2.748-6.136,6.136-6.136s6.136,2.747,6.136,6.136s-2.748,6.136-6.136,6.136S9.704,20.599,9.704,17.209z"/>
</svg>