<?xml version="1.0" standalone="no"?>
<!DOCTYPE svg PUBLIC "-//W3C//DTD SVG 20010904//EN"
 "http://www.w3.org/TR/2001/REC-SVG-20010904/DTD/svg10.dtd">
<svg version="1.0" xmlns="http://www.w3.org/2000/svg"
 width="" height="" viewBox="0 0 430.000000 321.000000"
 preserveAspectRatio="xMidYMid meet">

<g transform="translate(0.000000,321.000000) scale(0.100000,-0.100000)"
fill="#fff" stroke="none">
<path d="M4165 3155 c-44 -186 -107 -287 -250 -400 -87 -70 -135 -114 -135
-125 0 -5 -4 -10 -8 -10 -5 0 -21 -13 -38 -28 -16 -15 -85 -71 -154 -124 -268
-204 -383 -330 -415 -455 -24 -91 0 -145 83 -187 17 -9 32 -21 32 -25 0 -16
-148 -160 -213 -207 -139 -103 -248 -139 -402 -131 -160 7 -272 58 -333 150
-23 35 -27 51 -27 117 0 98 32 169 86 186 31 11 54 44 30 44 -22 0 -10 18 15
24 17 5 32 2 43 -9 39 -35 61 1 37 59 -15 35 -16 36 -73 36 -47 0 -61 4 -71
20 -10 16 -23 20 -65 20 -73 0 -158 -42 -223 -111 -58 -62 -158 -234 -188
-326 -44 -130 -117 -200 -221 -213 -126 -16 -253 15 -382 91 -60 36 -263 226
-263 246 0 6 19 22 43 35 86 47 98 141 35 260 -41 77 -166 206 -308 317 -120
94 -192 156 -300 256 -41 39 -93 84 -115 100 -112 80 -176 171 -224 318 -23
69 -34 80 -50 50 -44 -85 -55 -312 -21 -436 33 -118 112 -262 205 -372 23 -27
47 -60 53 -72 68 -128 -176 2 -285 152 l-22 30 0 -61 c-1 -113 60 -234 153
-304 28 -21 108 -68 178 -104 121 -64 158 -95 158 -132 0 -15 -10 -16 -92 -10
-113 9 -182 23 -230 47 -21 11 -40 19 -44 19 -13 0 4 -80 26 -126 48 -99 103
-134 338 -214 83 -29 152 -56 152 -60 0 -11 -177 -20 -258 -13 -81 7 -85 2
-51 -53 43 -70 191 -118 397 -130 170 -10 161 -31 -28 -58 -174 -26 -165 -24
-145 -46 9 -10 40 -28 68 -41 66 -29 237 -37 380 -19 92 12 127 9 99 -9 -7 -4
-71 -27 -142 -52 -72 -24 -130 -49 -130 -56 0 -6 12 -20 28 -31 68 -47 145
-53 304 -22 111 21 168 25 168 11 0 -5 -34 -24 -75 -42 -41 -18 -75 -36 -75
-41 0 -4 14 -15 32 -24 54 -28 190 -15 318 31 142 50 255 79 275 71 44 -16
-22 -174 -159 -382 -69 -104 -86 -136 -86 -166 0 -56 30 -82 85 -75 38 6 44 4
65 -25 21 -29 25 -30 71 -24 47 6 49 6 49 -18 0 -14 -5 -28 -12 -32 -6 -4 -53
-11 -105 -15 -100 -9 -144 -26 -162 -65 -7 -17 -6 -25 4 -34 11 -9 20 -7 41 9
34 27 69 29 59 4 -11 -26 -8 -54 8 -70 12 -12 16 -12 31 2 9 9 16 23 16 31 0
8 3 14 8 15 126 9 170 8 202 -9 19 -9 41 -29 48 -45 15 -32 47 -36 62 -8 5 11
10 23 10 27 0 4 -28 34 -62 65 -53 49 -60 59 -44 65 12 5 26 -2 46 -25 32 -34
57 -38 99 -16 25 12 31 12 47 0 25 -19 58 -19 95 1 21 10 43 13 69 9 24 -4 50
-1 75 9 46 20 51 20 59 1 4 -10 -11 -27 -45 -52 -53 -38 -61 -65 -26 -87 15
-9 22 -6 38 17 12 15 26 27 33 27 7 0 34 11 60 25 42 22 53 24 119 17 70 -7
72 -8 69 -34 -3 -34 9 -41 43 -26 25 11 26 15 22 71 -3 33 -10 64 -15 69 -5 5
-43 13 -83 16 -40 4 -74 12 -76 17 -2 6 17 16 41 23 31 8 53 22 72 47 17 22
35 35 50 35 30 0 64 37 64 70 0 40 -136 240 -271 400 -118 140 -93 155 132 80
179 -60 299 -76 356 -46 18 9 34 20 37 25 4 5 -25 21 -63 36 -71 27 -100 48
-82 59 5 3 56 -3 113 -13 207 -39 279 -39 340 3 60 40 51 49 -87 96 -187 64
-208 87 -60 63 56 -9 137 -13 217 -10 121 4 130 5 195 38 72 36 82 52 36 57
-32 3 -205 30 -245 38 -16 3 -28 11 -28 18 0 9 32 15 112 20 204 12 350 58
397 125 43 59 39 61 -144 61 -91 0 -165 4 -165 9 0 4 69 32 153 61 237 82 296
118 340 213 23 48 45 137 34 137 -2 0 -24 -11 -48 -24 -54 -29 -115 -42 -240
-52 -166 -12 -146 27 71 141 183 96 244 147 294 245 35 71 56 180 41 217 -5
15 -10 12 -26 -19 -30 -59 -116 -135 -193 -173 -92 -45 -126 -53 -126 -30 0
27 18 53 107 160 158 187 191 267 200 481 6 134 -8 232 -41 309 l-13 30 -8
-30z"/>
</g>
</svg>
