<svg width="37" height="36" viewBox="0 0 37 36" fill="none" xmlns="http://www.w3.org/2000/svg">
<circle cx="18.8848" cy="18" r="18" fill="#2A2173"/>
<path fill-rule="evenodd" clip-rule="evenodd" d="M8.28546 16.8531C13.63 14.5246 17.1939 12.9895 18.9771 12.2478C24.0684 10.1301 25.1264 9.76228 25.8159 9.75013C25.9676 9.74746 26.3067 9.78504 26.5263 9.96328C26.7118 10.1138 26.7628 10.3171 26.7872 10.4598C26.8117 10.6025 26.8421 10.9275 26.8179 11.1815C26.542 14.0804 25.3482 21.1154 24.7408 24.3622C24.4838 25.7361 23.9778 26.1967 23.4879 26.2418C22.4233 26.3398 21.6148 25.5382 20.5836 24.8623C18.9701 23.8046 18.0585 23.1461 16.4923 22.114C14.6822 20.9212 15.8556 20.2656 16.8871 19.1942C17.1571 18.9138 21.848 14.6471 21.9388 14.26C21.9501 14.2116 21.9607 14.0312 21.8535 13.9359C21.7463 13.8406 21.588 13.8732 21.4739 13.8991C21.312 13.9358 18.7343 15.6396 13.7408 19.0104C13.0091 19.5128 12.3464 19.7576 11.7526 19.7448C11.098 19.7306 9.83882 19.3747 8.90275 19.0704C7.75462 18.6972 6.84211 18.4999 6.92157 17.866C6.96296 17.5359 7.41759 17.1983 8.28546 16.8531Z" fill="white"/>
</svg>