<svg width="37" height="36" viewBox="0 0 37 36" fill="none" xmlns="http://www.w3.org/2000/svg">
<circle cx="18.8828" cy="18" r="18" fill="#2A2173"/>
<path fill-rule="evenodd" clip-rule="evenodd" d="M23.5823 19.985C23.3328 19.8608 22.1095 19.2625 21.8817 19.1792C21.6539 19.0967 21.4881 19.0558 21.3215 19.3042C21.1557 19.5508 20.6793 20.1092 20.5344 20.2742C20.3887 20.44 20.2438 20.46 19.9952 20.3367C19.7465 20.2117 18.9443 19.9508 17.9939 19.1075C17.2545 18.4509 16.7546 17.64 16.6098 17.3917C16.4649 17.1442 16.5939 17.01 16.7186 16.8867C16.8308 16.7759 16.9673 16.5975 17.0921 16.4534C17.2169 16.3084 17.2579 16.205 17.3408 16.0392C17.4245 15.8742 17.3826 15.73 17.3198 15.6059C17.2579 15.4817 16.7605 14.2625 16.5528 13.7667C16.351 13.2842 16.1459 13.35 15.9935 13.3417C15.8478 13.335 15.682 13.3334 15.5162 13.3334C15.3504 13.3334 15.0808 13.395 14.853 13.6434C14.6244 13.8909 13.9822 14.49 13.9822 15.7092C13.9822 16.9275 14.8731 18.105 14.9979 18.2709C15.1227 18.4359 16.7521 20.9375 19.2482 22.01C19.8428 22.265 20.3058 22.4175 20.6667 22.5308C21.2629 22.72 21.8055 22.6933 22.2342 22.6292C22.7115 22.5583 23.7063 22.03 23.9139 21.4517C24.1208 20.8733 24.1207 20.3775 24.0588 20.2742C23.9968 20.1708 23.831 20.1092 23.5815 19.985H23.5823ZM19.0423 26.1542H19.0389C17.5563 26.1544 16.101 25.7578 14.8254 25.0058L14.524 24.8275L11.3906 25.6458L12.2271 22.6058L12.0303 22.2942C11.2015 20.9811 10.7629 19.4615 10.7651 17.9109C10.7668 13.3692 14.4796 9.6742 19.0456 9.6742C21.2562 9.6742 23.3345 10.5325 24.897 12.0892C25.6676 12.853 26.2785 13.7613 26.6941 14.7616C27.1098 15.7619 27.322 16.8343 27.3186 17.9167C27.3169 22.4583 23.6041 26.1542 19.0423 26.1542ZM26.086 10.9067C25.1634 9.98247 24.0657 9.24965 22.8564 8.7507C21.6472 8.25175 20.3505 7.9966 19.0414 8.00003C13.5535 8.00003 9.08541 12.4459 9.08373 17.91C9.0829 19.6567 9.54092 21.3617 10.4126 22.8642L9 28L14.2786 26.6217C15.7388 27.4134 17.3752 27.8283 19.0381 27.8283H19.0423C24.5302 27.8283 28.9983 23.3825 29 17.9175C29.004 16.6152 28.7485 15.3251 28.2484 14.1217C27.7482 12.9183 27.0132 11.8256 26.086 10.9067Z" fill="white"/>
</svg>