<?xml version="1.0" encoding="UTF-8"?>
<!DOCTYPE svg PUBLIC "-//W3C//DTD SVG 1.1//EN" "http://www.w3.org/Graphics/SVG/1.1/DTD/svg11.dtd">
<!-- Creator: CorelDRAW X8 -->
<svg xmlns="http://www.w3.org/2000/svg" xml:space="preserve" width="297mm" height="210mm" version="1.1" style="shape-rendering:geometricPrecision; text-rendering:geometricPrecision; image-rendering:optimizeQuality; fill-rule:evenodd; clip-rule:evenodd"
viewBox="0 0 29700 21000"
 xmlns:xlink="http://www.w3.org/1999/xlink">
 <defs>
  <style type="text/css">
   <![CDATA[
    .str0 {stroke:#EBECEC;stroke-width:100}
    .fil1 {fill:none}
    .fil0 {fill:#EBECEC}
    .fil2 {fill:#EBECEC;fill-rule:nonzero}
   ]]>
  </style>
 </defs>
 <g id="Слой_x0020_1">
  <metadata id="CorelCorpID_0Corel-Layer"/>
  <polygon class="fil0" points="12565,2452 4284,8641 4284,10006 12543,3894 20845,10039 20845,8565 "/>
  <polygon class="fil0" points="17134,2452 15210,3890 16164,4595 17112,3894 25414,10039 25414,8565 21975,6026 21975,4022 20245,4021 20245,4749 "/>
  <polygon class="fil0" points="21796,7703 21796,14174 23134,14174 23134,8690 "/>
  <polygon class="fil0" points="25426,14375 4274,14375 4274,14892 25426,14892 "/>
  <path class="fil0" d="M16541 12677l-2719 -37 383 -151 -418 -422 -220 575c-16,38 2,63 41,63l2933 -28z"/>
  <path class="fil0" d="M14993 10358l-876 863c-174,226 111,460 286,286l869 -870c145,-142 -47,-457 -279,-279z"/>
  <path class="fil0" d="M15576 10381l-1149 1150c-174,226 111,460 286,286l1144 -1151c145,-143 -50,-464 -281,-285z"/>
  <path class="fil0" d="M16172 10410l-1432 1434c-174,226 111,460 286,286l1442 -1443c145,-143 -64,-455 -296,-277z"/>
  <polygon class="fil1 str0" points="13192,9573 16924,9573 16924,13305 13192,13305 "/>
  <path class="fil0" d="M9004 11505c-18,-8 -70,-75 -84,-95 -76,-110 -126,-263 -133,-403 -8,-151 35,-302 163,-373 40,-22 91,-37 146,-34 -3,24 5,40 23,45l0 56c-55,8 -103,60 -112,119 -10,66 1,581 -3,685zm1626 -781c-79,21 -170,74 -227,114 -34,24 -61,47 -103,67 -78,38 -186,60 -275,68 -50,4 -117,0 -170,0 -113,0 -229,3 -342,0 -9,-48 -46,-92 -73,-111 -17,-14 -38,-23 -63,-29 -13,-3 -28,-4 -42,-4 -12,0 -35,4 -43,1 -5,-74 -68,-132 -145,-132l0 -50c2,-10 15,-5 20,-30 79,20 213,142 325,192 311,141 458,-99 726,-215 108,-47 213,-45 330,-20 24,6 82,20 101,30 0,116 3,71 -19,93 -11,11 -4,17 0,26zm-1477 -111c-4,31 -52,23 -42,-11 11,1 34,6 42,11zm-36 -19c13,-8 29,-7 34,10 -10,-2 -27,-5 -34,-10zm-304 183c0,8 -10,33 -13,44 -25,85 -26,176 -12,264 3,18 5,34 9,50 3,14 11,37 11,49l35 97c35,85 69,137 128,203 7,9 29,26 33,34l1 251c1,11 -3,15 15,30 28,21 58,38 96,42l0 165 19 1 24 136 6 -33 14 -103 15 -1 0 -166c2,-5 39,-14 60,-24 15,-6 28,-16 41,-22 -4,-48 -4,-111 -2,-159 18,0 99,25 119,32 72,25 138,65 169,138 16,38 22,86 14,130 -15,78 -82,155 -167,133 -94,-25 -89,-112 -41,-122 18,-3 31,3 39,17 4,8 1,8 9,5 -14,-45 -77,-34 -86,6 -4,17 -2,33 4,48 8,16 16,22 28,33 20,10 29,17 56,22 24,4 48,3 68,-8 32,-17 64,-46 79,-80 22,-43 27,-97 16,-148 -5,-23 -14,-44 -24,-62 -33,-56 -83,-88 -147,-113 -36,-14 -96,-32 -136,-39l1 -116c3,-41 -1,-51 18,-84 12,-22 30,-39 53,-51 55,-29 117,-19 184,-19 269,1 559,3 827,-4 69,-1 117,-17 187,6 51,16 91,51 108,99 14,36 21,79 7,117 -37,99 -154,192 -241,251 -50,34 -69,47 -98,114 -32,72 -40,161 -38,247 -64,2 -132,0 -197,0 -362,0 -725,0 -1087,0 -64,0 -112,-6 -163,36 -10,9 -17,14 -25,24 -4,5 -19,24 -23,27 -2,12 -57,77 -53,197l520 0 889 0 1269 0c20,0 69,-2 86,1 7,-100 -48,-235 -141,-273 -10,-4 -43,-11 -47,-13 -12,2 -129,2 -143,0 -3,-144 1,-301 -1,-447 -1,-74 -4,-201 -1,-268 15,9 29,20 54,8 19,-10 22,-24 22,-50l0 -293c0,-44 -4,-105 0,-147 19,4 66,1 88,1 28,0 68,8 68,-25 0,-32 -40,-25 -66,-25 -22,0 -72,-2 -90,2 -3,-31 0,-80 0,-113 0,-38 7,-75 -29,-86 -16,-5 -35,0 -44,9 -13,11 -13,24 -13,45 0,38 0,77 0,115 -7,-6 -19,-24 -26,-33 -26,-32 -58,-63 -92,-88 -45,-34 -94,-61 -161,-79 -4,-21 -16,-15 -22,-26l-1 -197c16,-8 29,-11 30,-33 1,-22 -10,-28 -28,-35 -59,-22 -200,-23 -245,10 -9,6 -11,9 -11,23 -1,30 12,24 30,37l1 105c-83,-20 -114,-38 -214,-44 -83,-5 -148,6 -217,35 -124,53 -214,130 -324,191 -181,100 -308,88 -485,-21 -75,-47 -155,-117 -240,-146 -4,-19 -10,-31 -26,-35 -21,-6 -39,4 -43,17 -101,-3 -187,38 -242,110 -9,12 -16,22 -24,36 -4,8 -16,34 -21,38z"/>
  <polygon class="fil1 str0" points="8269,9573 12001,9573 12001,13305 8269,13305 "/>
  <path class="fil1 str0" d="M12543 5507c844,0 1528,684 1528,1528 0,844 -684,1528 -1528,1528 -844,0 -1528,-684 -1528,-1528 0,-844 684,-1528 1528,-1528z"/>
  <path class="fil2" d="M4371 16687m895 -936l0 936 -272 0 0 -514 -348 514 -275 0 0 -936 274 0 0 518 350 -518 271 0z"/>
  <path class="fil2" d="M5741 16687m0 -936l289 0 0 327 317 0 0 -327 290 0 0 936 -290 0 0 -379 -317 0 0 379 -289 0 0 -936z"/>
  <path class="fil2" d="M7076 16687m658 -383l253 76c-17,72 -43,131 -81,179 -36,47 -81,84 -136,108 -53,24 -123,36 -206,36 -103,0 -186,-14 -250,-44 -66,-30 -121,-81 -168,-156 -47,-75 -70,-170 -70,-286 0,-155 41,-274 124,-358 82,-82 199,-124 349,-124 118,0 211,24 279,72 68,47 118,120 150,220l-255 56c-9,-29 -18,-50 -27,-63 -17,-21 -37,-38 -61,-49 -23,-14 -49,-19 -78,-19 -65,0 -116,26 -152,79 -26,39 -39,100 -39,184 0,104 16,174 47,213 31,38 76,58 134,58 54,0 96,-16 125,-47 29,-30 49,-76 62,-135z"/>
  <path class="fil2" d="M8342 16687m0 -936l880 0 0 231 -295 0 0 705 -289 0 0 -705 -296 0 0 -231z"/>
  <path class="fil2" d="M9633 16687m895 -936l0 936 -272 0 0 -514 -348 514 -275 0 0 -936 274 0 0 518 350 -518 271 0z"/>
  <path class="fil2" d="M10937 16687m0 -936l880 0 0 231 -296 0 0 705 -289 0 0 -705 -295 0 0 -231z"/>
  <path class="fil2" d="M12139 16687m0 -936l314 0 131 386 127 -386 294 0 -307 723c-25,58 -47,102 -66,131 -18,29 -45,52 -83,71 -37,18 -87,27 -152,27 -34,0 -92,-5 -175,-14l0 -194c49,5 85,8 107,8 67,0 107,-25 122,-75l-312 -677z"/>
  <path class="fil2" d="M13320 16687m0 -936l881 0 0 231 -296 0 0 705 -289 0 0 -705 -296 0 0 -231z"/>
  <path class="fil2" d="M15620 16687m1064 205l-233 0 0 -205 -598 0 0 205 -233 0 0 -420 97 0c54,-152 81,-322 81,-512l0 -209 785 0 0 721 101 0 0 420zm-390 -420l0 -491 -233 0 0 12c0,129 -22,289 -65,479l298 0z"/>
  <path class="fil2" d="M17079 16687m895 -936l0 936 -272 0 0 -514 -348 514 -275 0 0 -936 273 0 0 518 351 -518 271 0z"/>
  <path class="fil2" d="M18390 16687m645 -508c112,30 168,100 168,212 0,91 -35,166 -105,225 -71,58 -171,87 -299,87 -220,0 -356,-93 -409,-276l273 -21c16,66 59,98 131,98 41,0 71,-10 90,-30 21,-19 32,-48 32,-83 0,-36 -13,-63 -40,-84 -24,-22 -61,-33 -106,-33l-78 0 0 -167 61 0c38,0 67,-10 88,-29 21,-20 32,-47 32,-81 0,-51 -32,-76 -96,-76 -65,0 -103,29 -114,88l-259 -31c42,-162 169,-243 378,-243 117,0 208,22 274,68 66,45 99,106 99,182 0,92 -40,156 -120,194z"/>
  <path class="fil2" d="M19533 16687m671 -154l-328 0 -47 154 -296 0 354 -936 316 0 351 936 -304 0 -46 -154zm-61 -203l-102 -336 -103 336 205 0z"/>
  <path class="fil2" d="M20926 16687m895 -936l0 936 -272 0 0 -514 -348 514 -275 0 0 -936 274 0 0 518 350 -518 271 0zm-212 -230c-9,53 -35,96 -77,129 -43,33 -94,50 -153,50 -59,0 -110,-17 -153,-50 -43,-33 -68,-76 -77,-129l110 0c18,53 57,79 118,79 64,0 105,-26 122,-79l110 0z"/>
  <path class="fil2" d="M22296 16687m0 -936l289 0 0 327 317 0 0 -327 290 0 0 936 -290 0 0 -379 -317 0 0 379 -289 0 0 -936z"/>
  <path class="fil2" d="M23571 16687m671 -154l-329 0 -47 154 -295 0 353 -936 316 0 351 936 -303 0 -46 -154zm-62 -203l-102 -336 -103 336 205 0z"/>
  <path class="fil2" d="M24947 16687m0 -257l277 0 0 213c0,80 -15,141 -48,187 -34,46 -89,85 -169,120l-60 -113c50,-23 82,-46 102,-68 18,-24 27,-50 30,-82l-132 0 0 -257z"/>
  <path class="fil2" d="M4276 18532m671 -154l-329 0 -47 154 -295 0 353 -936 316 0 351 936 -303 0 -46 -154zm-62 -203l-102 -336 -103 336 205 0zm501 357m0 -936l482 0c104,0 183,24 235,74 52,50 79,122 79,213 0,95 -29,169 -85,223 -58,53 -144,80 -262,80l-158 0 0 346 -291 0 0 -936zm291 400l72 0c56,0 95,-11 117,-29 23,-20 34,-44 34,-75 0,-30 -9,-54 -30,-75 -19,-20 -56,-30 -111,-30l-82 0 0 209zm562 536m29 -936l319 0 166 287 161 -287 316 0 -291 453 318 483 -326 0 -183 -301 -186 301 -323 0 323 -488 -294 -448zm1083 936m895 -936l0 936 -272 0 0 -514 -348 514 -275 0 0 -936 274 0 0 518 350 -518 271 0zm128 936m0 -936l881 0 0 231 -296 0 0 705 -289 0 0 -705 -296 0 0 -231zm1010 936m0 -936l775 0 0 200 -485 0 0 149 449 0 0 191 -449 0 0 184 499 0 0 212 -789 0 0 -936zm945 936m851 0l-326 0 -113 -241c-27,-57 -47,-94 -62,-108 -14,-14 -35,-21 -61,-21l0 370 -289 0 0 -936 289 0 0 359c25,-1 44,-10 59,-27 14,-16 35,-64 65,-143 22,-57 44,-99 67,-125 21,-25 57,-44 107,-54 50,-12 128,-17 234,-17l0 198 -14 0c-50,0 -87,9 -110,27 -24,20 -43,50 -59,92 -16,41 -31,73 -50,94 -17,21 -42,36 -72,49 42,14 79,37 109,71 31,33 64,85 99,156l127 256zm38 0m0 -936l881 0 0 231 -296 0 0 705 -289 0 0 -705 -296 0 0 -231zm922 936m0 -936l314 0 131 385 127 -385 294 0 -307 723c-25,58 -47,102 -65,131 -19,29 -46,52 -84,70 -37,19 -86,28 -152,28 -34,0 -91,-5 -175,-15l0 -193c50,5 85,8 107,8 67,0 107,-25 122,-75l-312 -677zm966 936m0 -936l481 0c105,0 183,24 236,74 52,50 78,122 78,213 0,95 -29,169 -85,223 -57,53 -144,80 -261,80l-159 0 0 346 -290 0 0 -936zm290 400l72 0c56,0 96,-11 118,-29 22,-20 34,-44 34,-75 0,-30 -9,-54 -30,-75 -20,-20 -56,-30 -111,-30l-83 0 0 209zm657 536m289 -575l154 0c143,0 248,24 316,74 69,51 103,128 103,234 0,87 -31,152 -94,198 -63,46 -153,69 -271,69l-497 0 0 -936 289 0 0 361zm0 374l148 0c90,0 136,-33 136,-98 0,-58 -46,-87 -136,-87l-148 0 0 185zm644 -735l290 0 0 936 -290 0 0 -936zm919 936m895 -936l0 936 -272 0 0 -514 -348 514 -275 0 0 -936 274 0 0 518 350 -518 271 0zm565 936m0 -936l881 0 0 231 -296 0 0 705 -289 0 0 -705 -296 0 0 -231zm1010 936m0 -936l775 0 0 200 -484 0 0 149 448 0 0 191 -448 0 0 184 498 0 0 212 -789 0 0 -936zm945 936m851 0l-325 0 -114 -241c-26,-57 -47,-94 -62,-108 -14,-14 -35,-21 -61,-21l0 370 -289 0 0 -936 289 0 0 359c25,-1 44,-10 59,-27 14,-16 35,-64 65,-143 22,-57 44,-99 67,-125 21,-25 57,-44 107,-54 50,-12 128,-17 234,-17l0 198 -14 0c-50,0 -87,9 -110,27 -24,20 -43,50 -59,92 -16,41 -31,73 -50,94 -17,21 -42,36 -72,49 42,14 79,37 109,71 31,33 64,85 99,156l127 256zm70 0m658 -383l253 76c-17,72 -43,131 -81,179 -36,47 -81,84 -136,107 -53,25 -123,37 -206,37 -103,0 -186,-15 -250,-45 -66,-30 -121,-81 -168,-155 -47,-75 -70,-170 -70,-287 0,-154 41,-273 124,-357 82,-82 199,-124 349,-124 118,0 211,23 279,72 68,47 118,120 150,220l-255 56c-9,-29 -18,-50 -27,-63 -17,-21 -37,-38 -61,-50 -23,-13 -49,-18 -78,-18 -65,0 -116,26 -152,78 -26,40 -39,101 -39,185 0,103 16,174 47,213 31,38 76,58 134,58 54,0 96,-16 125,-47 29,-30 49,-76 62,-135zm328 383m0 -936l880 0 0 231 -295 0 0 705 -289 0 0 -705 -296 0 0 -231zm1011 936m895 -936l0 936 -272 0 0 -514 -348 514 -275 0 0 -936 274 0 0 518 350 -518 271 0zm99 936m955 0l-289 0 0 -706 -226 0 0 288c0,119 -7,205 -18,261 -13,55 -42,96 -89,122 -46,26 -121,39 -224,39 -31,0 -68,-4 -109,-10l0 -190 44 0c39,0 66,-9 83,-26 16,-17 24,-49 24,-94l0 -620 804 0 0 936zm98 0m921 0l0 -936 -482 0c-89,0 -157,7 -204,23 -47,14 -87,43 -116,85 -28,42 -43,92 -43,152 0,52 12,97 34,135 21,38 53,68 92,91 23,16 57,28 101,38 -34,11 -59,22 -75,34 -10,8 -26,24 -47,50 -20,25 -33,44 -39,57l-142 271 327 0 155 -285c19,-38 38,-61 52,-73 21,-15 45,-21 72,-21l25 0 0 379 290 0zm-290 -556l-122 0c-13,0 -39,-4 -77,-13 -19,-4 -35,-13 -47,-29 -12,-17 -18,-34 -18,-55 0,-30 9,-53 29,-69 19,-17 54,-25 108,-25l127 0 0 191z"/>
  <path class="fil0" d="M11407 6444l161 1054 1354 -374 -61 -216c-196,-23 -264,-4 -469,-141 -85,-56 -238,-203 -270,-350l-715 27z"/>
  <path class="fil0" d="M11598 7658c-7,-22 -12,-35 -16,-60l2 -63 270 -78c20,29 24,88 30,129 -82,13 -215,79 -286,72zm750 -319c25,47 8,27 44,46 26,14 13,3 31,21l-62 3c-9,-23 -19,-38 -13,-70zm426 -139c36,-24 113,-41 160,-51l16 95 -146 43 -30 -87zm60 -475c9,14 -1,-9 14,25l21 90c-20,-29 -32,-75 -35,-115zm-22 -75c7,11 8,2 18,32 7,25 4,21 7,43 -7,-10 -8,-3 -18,-33 -6,-21 -5,-21 -7,-42zm-20 -74c20,32 17,30 24,74 -18,-27 -21,-28 -24,-74zm-22 -76c22,34 17,24 24,74 -7,-11 -3,11 -16,-31 -7,-24 -5,-18 -8,-43zm-648 -83c32,147 185,294 270,350 205,137 273,118 469,141l61 216 -1354 374 -161 -1054 715 -27zm644 41c8,23 4,20 7,41 -22,-35 -18,-39 -25,-75 7,11 9,5 18,34zm135 -331l347 -47 -2 1336 -336 -44 -17 -72 -61 7c41,-27 97,-31 136,-60 3,-61 -72,-278 -90,-357 29,-12 -25,-14 8,5 29,15 -17,18 13,6 23,-123 73,-484 57,-609 -10,-90 -39,-111 -55,-165zm-290 31l5 197c68,-2 105,-19 126,35 -43,-41 -252,-20 -322,-17 -120,4 -234,6 -353,10 -129,4 -619,3 -696,25 -15,68 69,526 85,636 15,108 33,216 51,324 13,86 47,253 45,329 2,27 -26,21 34,25 93,6 36,-8 47,-19 6,-8 -6,-4 16,-16 1,0 22,-9 24,-10 70,-20 36,-2 50,9 23,7 15,7 6,-15 2,-3 -21,-14 24,-19 36,-4 17,-1 34,12 55,-2 105,-44 174,-49l-9 -27c3,-1 34,-11 34,-11 32,-1 12,-6 30,11 26,8 22,12 10,-12 11,-15 -14,0 16,-17 5,-3 19,-9 24,-10 59,-18 35,-4 49,7 25,9 18,10 8,-13 20,-27 62,-32 105,-45 163,-54 92,-32 109,-11 26,0 20,6 12,-20 0,0 -21,-13 24,-17 34,-4 16,-1 33,11l128 -46c63,-30 -48,4 21,-6 8,-1 28,-3 31,-4 32,-12 16,-7 26,-19 1,-3 3,-10 5,-8 0,0 -1,-10 44,-24 26,-7 34,-10 57,-20l0 32c68,0 183,25 257,33l199 27c51,7 43,3 67,26 9,18 4,9 29,14 -24,-241 32,-1317 -14,-1424 -76,-19 -34,3 -47,13 26,15 77,3 -46,20 -26,4 -52,7 -75,10 -54,8 -110,14 -160,22 -84,14 -250,24 -317,51z"/>
  <path class="fil0" d="M12901 6127c16,54 45,75 55,165 16,125 -34,486 -57,609 -30,12 16,9 -13,-6 -33,-19 21,-17 -8,-5 18,79 93,296 90,357 -39,29 -95,33 -136,60l61 -7 17 72 336 44 2 -1336 -347 47z"/>
  <path class="fil0" d="M11755 8002c10,-13 -12,-8 19,-19 18,-6 8,-3 33,-4l-52 23zm775 -288l52 -3c-20,13 -19,10 -26,30 -94,-4 -13,25 -109,25l15 -13c1,-1 6,-2 7,-7 1,-4 4,-5 7,-7 -61,-4 -28,-6 -46,-21 32,-16 36,4 9,-17l39 19c0,1 1,5 2,6 0,1 1,8 2,6 0,-1 1,4 1,6 52,-5 33,2 47,-24zm0 0l-44 -1c31,-29 7,-28 58,-26 -2,3 -2,42 -10,20 -1,-2 -2,5 -4,7zm7 -86c-26,28 37,22 -48,24 -4,1 -50,5 -74,20 -62,37 38,-3 -24,12 -2,1 -18,3 -21,3l-180 69c-22,14 -3,-4 -19,16 -20,12 -42,23 -72,36l-32 -8 -357 136c-48,16 -72,5 -28,85 10,-19 -22,-28 31,-10 38,14 -14,-4 32,28l68 -18 46 -22c-2,-2 -4,-10 -5,-8l-9 -13 -2 -39c33,14 34,11 64,-5 38,-20 1,-14 66,-19 3,-3 10,-10 11,-12 1,0 4,-4 5,-5 22,-18 -20,-16 25,-9 9,33 8,-19 -1,15l36 22 -42 33c44,6 48,-3 89,-11 -15,-16 -1,-4 -21,-19l-25 -15c54,-13 18,2 28,-22l-53 1 53 -33c63,-1 5,-4 31,18 21,7 13,7 4,-14 7,-10 -5,-4 14,-19l90 -39c58,0 4,-4 28,18 24,8 16,8 5,-13l12 -21c9,-24 7,6 2,-12 40,6 10,9 46,-2 48,-15 68,-42 124,-44 -37,31 -29,1 -18,30 40,13 6,59 116,0 24,-13 16,-11 24,-21l45 -3c31,-65 -4,23 -10,-49l-49 1c3,-2 7,-7 8,-5 3,10 10,-10 10,-10 13,-25 7,3 1,-14 49,8 51,-8 57,-11 21,-14 24,-6 61,-13 -33,20 -27,12 -12,41l61 12c6,-4 -5,0 19,-13 21,-11 -22,8 16,-7 20,-9 22,-8 46,-13 -15,-9 6,-3 -33,-15 -26,-7 -12,-4 -42,-7l26 -5 -38 -19 92 -30 -1 -22c1,-13 36,-3 40,-5l14 -23 37 17 13 -7c7,-34 -25,-12 18,-28 -34,-46 -173,19 -215,45 -21,13 -167,41 -183,70z"/>
  <path class="fil0" d="M13256 6042c46,107 -10,1183 14,1424 32,9 45,16 90,9l-53 -18c-14,-109 -6,-1377 10,-1410 45,-31 172,-7 214,8 17,52 25,1265 -6,1339 11,-10 27,4 27,-87l0 -1175c0,-98 -43,-114 -204,-113 -57,1 -48,16 -92,23z"/>
  <path class="fil0" d="M11620 8010c-1,47 -3,36 70,79 118,70 227,170 323,135 61,-23 152,-67 213,-98 71,-35 147,-66 221,-99l643 -295c114,-56 191,-60 189,-123l-1251 575c-93,39 -150,-13 -218,-55 -63,-40 -137,-80 -190,-119z"/>
  <path class="fil0" d="M11552 7697c2,-76 -32,-243 -45,-329 -18,-108 -36,-216 -51,-324 -16,-110 -100,-568 -85,-636 77,-22 567,-21 696,-25 119,-4 233,-6 353,-10 70,-3 279,-24 322,17 -21,-54 -58,-37 -126,-35l-5 -197c-25,28 -7,163 -5,198 -224,5 -458,21 -681,19 -109,-1 -233,14 -337,12 -335,-6 -270,-18 -154,719l80 528c10,50 8,45 38,63z"/>
  <path class="fil0" d="M11950 8074l14 30c-50,14 -57,33 -91,-2l77 -28zm0 0c37,-21 40,-26 84,-31l16 25c-56,13 -42,29 -100,6zm84 -31c38,-33 45,-36 98,-23 -37,34 -54,33 -98,23zm98 -23l-8 -14c0,-3 -1,-5 -3,-6 38,-22 45,-30 85,-4l-74 24zm65 -52c36,-23 45,-27 82,-10 -33,30 -57,37 -82,10zm607 -268l48 8c-11,11 4,8 -29,21 -10,4 -20,2 -28,2 -11,13 0,8 -26,21 -13,6 -20,7 -31,12 -38,17 -21,23 -73,14 39,33 -36,-35 15,17l-56 12c6,24 11,19 -12,19 -36,4 -136,53 -177,71l-136 55c-50,2 -29,-15 -30,-17 11,-5 19,-9 29,-14 22,-12 17,-11 23,-17 -14,1 -28,2 -41,7 -40,12 5,-2 -37,18 -34,17 -32,12 -66,8 26,30 -26,-34 12,19 -20,6 -31,10 -51,14l-34 13c-39,26 -35,21 -78,18l6 16c-40,14 -74,30 -113,47 -40,18 -80,48 -99,1l-48 -18 41 -26 -68 18c-46,-32 6,-14 -32,-28 -53,-18 -21,-9 -31,10 145,48 172,164 299,107l802 -351c44,-19 131,-51 160,-79 -58,-17 -55,18 -90,7 -36,-12 -6,-7 0,-12l-8 -17c-12,5 -12,3 -24,10 -13,8 -15,11 -17,14z"/>
  <path class="fil0" d="M12123 7543c16,20 17,-28 8,30 -7,44 -24,17 -82,55l74 -19 -9 81c188,38 183,6 198,-96 57,2 99,20 162,22 -42,-24 -120,-14 -157,-43l20 -86c-17,-21 54,-43 -109,11 -43,13 -85,18 -105,45z"/>
  <path class="fil0" d="M11598 7658c71,7 204,-59 286,-72 -6,-41 -10,-100 -30,-129l-270 78 -2 63c4,25 9,38 16,60z"/>
  <path class="fil0" d="M12389 7851c6,34 -49,32 -69,16l69 -16zm0 0c9,-37 51,-31 73,-15l-73 15zm-21 -33c-3,-36 43,-27 67,-24 -11,10 17,5 -29,20 -18,6 -21,3 -38,4zm48 -56l-105 52c-23,1 -25,-9 -31,-14l61 -20c47,-21 20,-22 75,-18zm175 -73c5,-11 -17,-13 21,-21 31,-5 15,0 25,5l-46 16zm0 0c6,72 41,-16 10,49l-45 3c-8,10 0,8 -24,21 -110,59 -76,13 -116,0 -11,-29 -19,1 18,-30 -56,2 -76,29 -124,44 -36,11 -6,8 -46,2 5,18 7,-12 -2,12l-12 21c38,1 27,4 45,15 2,1 5,3 7,5 33,-22 24,-16 66,-13 -7,16 13,13 -29,25 -19,5 -22,1 -37,-2l-8 15c0,0 -2,3 -3,5l-60 14c9,-14 -37,16 32,-36l-18 -15c-24,-22 30,-18 -28,-18l-90 39c-19,15 -7,9 -14,19l30 -1c32,-29 32,-26 79,-25 -15,20 0,5 -18,20l-22 14 51 -1 -26 33c56,6 45,-24 106,-25 20,23 7,-8 8,25l180 -67c26,-15 17,-13 23,-19l-74 6c29,-30 23,-18 59,-33 42,-18 21,-22 78,-18 -2,-2 -10,-14 -12,-16l60 -11c21,-27 22,-22 63,-23l30 -33 -61 -12c-15,-29 -21,-21 12,-41 -37,7 -40,-1 -61,13 -6,3 -8,19 -57,11 6,17 12,-11 -1,14 0,0 -7,20 -10,10 -1,-2 -5,3 -8,5l49 -1z"/>
  <path class="fil0" d="M12917 7541c2,11 13,12 -19,14 -35,2 -11,-1 -29,-10l35 3 -37 -17 -14 23c-4,2 -39,-8 -40,5l1 22c-12,10 10,2 -20,14 -10,4 -22,5 -31,8l23 28c-9,26 -5,10 9,12 7,-37 -3,-16 19,-23l8 18 15 13c28,9 4,5 41,7 24,-24 5,-12 13,-28l91 -42c25,-29 -44,-5 46,-26 0,1 1,2 1,4 0,2 2,4 2,5 0,1 2,5 2,6l5 17c33,3 17,7 56,11 52,-9 38,-21 87,-11 60,-6 1,7 28,-28 -62,-2 -94,-16 -150,-29 -125,-28 -79,11 -118,14 17,-8 4,2 13,-6l31 -31 -50 -1c-43,16 -11,-6 -18,28z"/>
  <path class="fil0" d="M13379 7217c-21,-33 -33,-62 -59,-99l-3 211 206 -59 2 -172c-26,87 -48,107 -146,119z"/>
  <path class="fil0" d="M13316 6831c30,-31 43,-70 61,-109l99 -9 47 83 2 -162 -207 -1 -2 198z"/>
  <path class="fil0" d="M11970 7957l48 7c0,0 -30,49 -84,18l36 -25zm-125 21c33,-31 49,-30 89,-23 -34,35 -57,32 -89,23zm125 -21l-46 -8c32,-32 38,-18 42,-30 1,-4 5,-3 7,-4 16,7 7,1 21,12 2,1 6,9 8,6 1,-2 5,5 7,6l-39 18zm3 -42c-65,5 -28,-1 -66,19 -30,16 -31,19 -64,5l2 39 9 13c1,-2 3,6 5,8l-46 22c49,-7 37,-18 73,9 -34,15 -41,10 -66,35 74,-12 134,-66 206,-64 13,-32 22,-24 53,-33 22,-7 17,-3 31,-12 42,-27 5,-4 20,-20l-47 -10 45 -32 -50 -2c-10,24 26,9 -28,22l25 15c20,15 6,3 21,19 -41,8 -45,17 -89,11l42 -33 -36 -22c9,-34 10,18 1,-15 -45,-7 -3,-9 -25,9 -1,1 -4,5 -5,5 -1,2 -8,9 -11,12z"/>
  <path class="fil0" d="M12804 7287l146 -43 -16 -95c-47,10 -124,27 -160,51l30 87z"/>
  <path class="fil0" d="M12524 7818c-6,6 3,4 -23,19l-180 67c-6,6 -1,5 -23,17 -10,5 -18,9 -29,14 1,2 -20,19 30,17l136 -55c41,-18 141,-67 177,-71 -8,-13 -7,-17 -25,-27 -36,16 -24,15 -63,19z"/>
  <path class="fil0" d="M13513 6576l-155 5c-18,-16 -4,2 -11,-26l-8 14c-1,1 -3,6 -4,7 -1,1 -3,4 -4,7l3 -57 174 3 5 47zm-202 -28c0,83 41,45 220,47l5 -83c-124,-2 -225,-24 -225,36z"/>
  <path class="fil0" d="M12612 7386c80,-28 220,10 307,20 111,13 214,26 322,46 -24,-23 -16,-19 -67,-26l-199 -27c-74,-8 -189,-33 -257,-33l0 -32c-23,10 -31,13 -57,20 -45,14 -44,24 -44,24 -2,-2 -4,5 -5,8z"/>
  <path class="fil0" d="M12067 7800l32 8c30,-13 52,-24 72,-36 -63,15 -196,-39 -254,-57l-22 -38c-15,72 -15,71 55,88 38,10 84,24 117,35z"/>
  <path class="fil0" d="M12611 6158c67,-27 233,-37 317,-51 50,-8 106,-14 160,-22 23,-3 49,-6 75,-10 123,-17 72,-5 46,-20l-564 76c-58,16 -21,5 -34,27z"/>
  <path class="fil0" d="M13094 7605l-6 7 -39 10 -12 13c-43,18 -68,43 -108,12l-39 9c0,0 23,9 24,9 66,22 77,22 130,-1 27,-12 138,-51 137,-70 -49,-10 -35,2 -87,11z"/>
  <path class="fil0" d="M11820 8065c19,47 59,17 99,-1 39,-17 73,-33 113,-47l-6 -16c-72,-2 -132,52 -206,64z"/>
  <path class="fil0" d="M12698 7723c-12,34 -26,26 -63,23 19,21 7,4 -2,19l-46 8c-23,30 -24,23 -64,25l1 20c39,-4 27,-3 63,-19l21 -12 57 -9c9,-10 -7,-5 25,-21 13,-6 19,-6 31,-11 45,-20 18,-22 74,-15l-13 -16c50,-6 11,1 22,-15l-106 23z"/>
  <path class="fil0" d="M13347 6555l150 -5 16 26 -5 -47 -174 -3 -3 57c1,-3 3,-6 4,-7 1,-1 3,-6 4,-7l8 -14z"/>
  <path class="fil0" d="M12026 8001c43,3 39,8 78,-18l34 -13c20,-4 31,-8 51,-14 -38,-53 14,11 -12,-19l-47 -1c-15,16 22,-7 -20,20 -14,9 -9,5 -31,12 -31,9 -40,1 -53,33z"/>
  <path class="fil0" d="M13513 6576l-16 -26 -150 5c7,28 -7,10 11,26l155 -5z"/>
  <path class="fil0" d="M12245 7824l18 15c-69,52 -23,22 -32,36l60 -14c1,-2 3,-5 3,-5l8 -15c15,3 18,7 37,2 42,-12 22,-9 29,-25 -42,-3 -33,-9 -66,13 -2,-2 -5,-4 -7,-5 -18,-11 -7,-14 -45,-15 11,21 19,21 -5,13z"/>
  <path class="fil0" d="M12207 7904l-30 33c34,4 32,9 66,-8 42,-20 -3,-6 37,-18 13,-5 27,-6 41,-7 -1,-33 12,-2 -8,-25 -61,1 -50,31 -106,25z"/>
  <path class="fil0" d="M12982 7588l-6 23c4,6 9,5 10,9 1,3 6,3 8,3 2,1 12,3 14,3 13,3 23,6 29,9l12 -13 -18 -9c42,-13 25,-23 57,-1l6 -7c-39,-4 -23,-8 -56,-11l-5 -17c0,-1 -2,-5 -2,-6 0,-1 -2,-3 -2,-5 0,-2 -1,-3 -1,-4 -90,21 -21,-3 -46,26z"/>
  <path class="fil0" d="M12556 7741c7,-20 6,-17 26,-30l-52 3c-14,26 5,19 -47,24 0,-2 -1,-7 -1,-6 -1,2 -2,-5 -2,-6 -1,-1 -2,-5 -2,-6l-39 -19c27,21 23,1 -9,17 18,15 -15,17 46,21 -3,2 -6,3 -7,7 -1,5 -6,6 -7,7l-15 13c96,0 15,-29 109,-25z"/>
  <path class="fil0" d="M12109 7878l-29 0 -2 14 50 2 -45 32 47 10 37 -20 -37 -23 25 -10c-18,-17 -8,-10 -12,-20l-30 1c9,21 17,21 -4,14z"/>
  <path class="fil0" d="M12665 7778c52,9 35,3 73,-14 11,-5 18,-6 31,-12 26,-13 15,-8 26,-21 -56,-7 -29,-5 -74,15 -12,5 -18,5 -31,11 -32,16 -16,11 -25,21z"/>
  <path class="fil0" d="M11813 8021l-41 26 48 18c25,-25 32,-20 66,-35 -36,-27 -24,-16 -73,-9z"/>
  <path class="fil0" d="M12524 7818l-1 -20c40,-2 41,5 64,-25 -57,-4 -36,0 -78,18 -36,15 -30,3 -59,33l74 -6z"/>
  <path class="fil0" d="M11950 8074c58,23 44,7 100,-6l-16 -25c-44,5 -47,10 -84,31z"/>
  <path class="fil0" d="M11950 8074l-77 28c34,35 41,16 91,2l-14 -30z"/>
  <path class="fil0" d="M12416 7762c-55,-4 -28,-3 -75,18l-61 20c6,5 8,15 31,14l105 -52z"/>
  <path class="fil0" d="M12034 8043c44,10 61,11 98,-23 -53,-13 -60,-10 -98,23z"/>
  <path class="fil0" d="M12392 7385c-36,-19 -19,1 -44,-46 -6,32 4,47 13,70l62 -3c-18,-18 -5,-7 -31,-21z"/>
  <path class="fil0" d="M12197 7968c25,27 49,20 82,-10 -37,-17 -46,-13 -82,10z"/>
  <path class="fil0" d="M11970 7957l39 -18c-2,-1 -6,-8 -7,-6 -2,3 -6,-5 -8,-6 -14,-11 -5,-5 -21,-12 -2,1 -6,0 -7,4 -4,12 -10,-2 -42,30l46 8z"/>
  <polygon class="fil0" points="12130,7936 12177,7937 12207,7904 12168,7902 12155,7883 12130,7893 12167,7916 "/>
  <path class="fil0" d="M12132 8020l74 -24c-40,-26 -47,-18 -85,4 2,1 3,3 3,6l8 14z"/>
  <path class="fil0" d="M11970 7957l-36 25c54,31 84,-18 84,-18l-48 -7z"/>
  <path class="fil0" d="M11845 7978c32,9 55,12 89,-23 -40,-7 -56,-8 -89,23z"/>
  <polygon class="fil0" points="12155,7883 12168,7902 12207,7904 12233,7871 12182,7872 "/>
  <path class="fil0" d="M12143 7863l39 9 22 -14c18,-15 3,0 18,-20 -47,-1 -47,-4 -79,25z"/>
  <path class="fil0" d="M12760 7630l26 1 -23 -28c9,-3 21,-4 31,-8 30,-12 8,-4 20,-14l-92 30 38 19z"/>
  <path class="fil0" d="M12078 7892l2 -14 29 0c-26,-22 32,-19 -31,-18l-53 33 53 -1z"/>
  <path class="fil0" d="M12368 7818c17,-1 20,2 38,-4 46,-15 18,-10 29,-20 -24,-3 -70,-12 -67,24z"/>
  <path class="fil0" d="M12795 7731c8,0 18,2 28,-2 33,-13 18,-10 29,-21l-48 -8c-11,16 28,9 -22,15l13 16z"/>
  <path class="fil0" d="M12608 7787c10,17 -6,6 16,20l56 -12c-51,-52 24,16 -15,-17l-57 9z"/>
  <path class="fil0" d="M12530 7714c2,-2 3,-9 4,-7 8,22 8,-17 10,-20 -51,-2 -27,-3 -58,26l44 1z"/>
  <path class="fil0" d="M12635 7746c37,3 51,11 63,-23 -41,1 -42,-4 -63,23z"/>
  <path class="fil0" d="M11633 7703c45,-11 41,-19 90,-17 -14,-11 20,-29 -50,-9 -2,1 -23,10 -24,10 -22,12 -10,8 -16,16z"/>
  <path class="fil0" d="M12389 7851l-69 16c20,16 75,18 69,-16z"/>
  <path class="fil0" d="M12026 7576c41,-14 44,-21 89,-20 -14,-11 10,-25 -49,-7 -5,1 -19,7 -24,10 -30,17 -5,2 -16,17z"/>
  <path class="fil0" d="M12389 7851l73 -15c-22,-16 -64,-22 -73,15z"/>
  <path class="fil0" d="M12587 7773l46 -8c9,-15 21,2 2,-19l-60 11c2,2 10,14 12,16z"/>
  <path class="fil0" d="M12848 6750c-15,-34 -5,-11 -14,-25 3,40 15,86 35,115l-21 -90z"/>
  <path class="fil0" d="M12489 7652c85,-2 22,4 48,-24 -17,3 -13,7 -13,-10 -3,3 -7,3 -9,9l-26 25z"/>
  <path class="fil0" d="M12587 7799c18,10 17,14 25,27 23,0 18,5 12,-19 -22,-14 -6,-3 -16,-20l-21 12z"/>
  <path class="fil0" d="M12728 7690c18,-3 26,-4 42,-10 35,-14 -3,3 16,-7 26,-14 11,-7 23,-16 -24,5 -26,4 -46,13 -38,15 5,-4 -16,7 -24,13 -13,9 -19,13z"/>
  <path class="fil0" d="M12830 6682c-10,-30 -11,-21 -18,-32 2,21 1,21 7,42 10,30 11,23 18,33 -3,-22 0,-18 -7,-43z"/>
  <path class="fil0" d="M11729 7671c46,-11 11,-9 58,-7 -17,-13 2,-16 -34,-12 -45,5 -22,16 -24,19z"/>
  <path class="fil0" d="M12929 7647l52 -9c-14,-7 5,-15 -27,-10 -42,5 -16,5 -25,19z"/>
  <path class="fil0" d="M13049 7622l39 -10c-32,-22 -15,-12 -57,1l18 9z"/>
  <path class="fil0" d="M12349 7467c46,-10 8,-8 57,-6 -17,-12 1,-15 -33,-11 -45,4 -24,17 -24,17z"/>
  <path class="fil0" d="M12794 6574c-7,-50 -2,-40 -24,-74 3,25 1,19 8,43 13,42 9,20 16,31z"/>
  <path class="fil0" d="M12773 6499c-3,-21 1,-18 -7,-41 -9,-29 -11,-23 -18,-34 7,36 3,40 25,75z"/>
  <path class="fil0" d="M12816 6650c-7,-44 -4,-42 -24,-74 3,46 6,47 24,74z"/>
  <path class="fil0" d="M13463 7010c-12,-11 -5,-7 -24,-19 -10,-6 -16,-7 -27,-14 13,34 11,26 51,33z"/>
  <path class="fil0" d="M12591 7689l46 -16c-10,-5 6,-10 -25,-5 -38,8 -16,10 -21,21z"/>
  <path class="fil0" d="M12891 7630c45,-9 21,-6 48,-17 5,-2 19,-6 23,-9 29,-14 16,-9 20,-16l-91 42z"/>
  <path class="fil0" d="M11952 7588l64 0c-18,-17 2,-12 -30,-11 0,0 -31,10 -34,11z"/>
  <path class="fil0" d="M12795 7643l27 -5 -8 -18c-22,7 -12,-14 -19,23z"/>
  <path class="fil0" d="M11807 7979c-25,1 -15,-2 -33,4 -31,11 -9,6 -19,19l52 -23z"/>
  <path class="fil0" d="M12917 7541l-13 7 -35 -3c18,9 -6,12 29,10 32,-2 21,-3 19,-14z"/>
  <path class="fil0" d="M12155 7883l27 -11 -39 -9c4,10 -6,3 12,20z"/>
  <path class="fil0" d="M12853 7693l18 -22c-66,-13 -9,-4 -26,5l8 17z"/>
  <path class="fil0" d="M13441 7431c19,2 34,0 46,-6l-46 6z"/>
 </g>
</svg>
