<svg width="27" height="28" viewBox="0 0 27 28" fill="none" xmlns="http://www.w3.org/2000/svg">
<g clip-path="url(#clip0)">
<path d="M5.07273 5.57273C7.32375 3.32171 10.3166 2.08203 13.5 2.08203C15.9344 2.08203 18.2881 2.82258 20.2675 4.18967L18.7394 4.34639L18.9008 5.92014L23.0141 5.49827L22.5922 1.38499L21.0184 1.54641L21.1552 2.88011C18.9151 1.33621 16.2532 0.5 13.5 0.5C9.89402 0.5 6.50389 1.90426 3.95408 4.45408C1.40426 7.00389 0 10.394 0 14C0 16.6996 0.794391 19.3053 2.29727 21.5355L3.60919 20.6514C3.591 20.6243 3.57333 20.5971 3.55535 20.5699C2.26431 18.62 1.58203 16.3507 1.58203 14C1.58203 10.8166 2.82171 7.82375 5.07273 5.57273Z" fill="#0C143B"/>
<path d="M24.7012 6.46436L23.3892 7.34845C23.4074 7.37545 23.4251 7.40282 23.4431 7.42992C24.7341 9.37983 25.4164 11.6491 25.4164 13.9998C25.4164 17.1832 24.1767 20.1761 21.9257 22.4271C19.6747 24.6781 16.6819 25.9178 13.4984 25.9178C11.064 25.9178 8.71038 25.1773 6.73099 23.8102L8.25908 23.6534L8.09766 22.0797L3.98438 22.5016L4.40625 26.6148L5.98005 26.4534L5.84326 25.1197C8.08336 26.6636 10.7453 27.4998 13.4984 27.4998C17.1044 27.4998 20.4946 26.0956 23.0444 23.5458C25.5942 20.9959 26.9984 17.6058 26.9984 13.9998C26.9984 11.3003 26.2041 8.69449 24.7012 6.46436Z" fill="#0C143B"/>
<path d="M6.5925 15.6603L7.6166 14.7138C8.39243 14 8.53987 13.519 8.53987 12.9914C8.53987 11.9828 7.67867 11.3389 6.4296 11.3389C5.35893 11.3389 4.59086 11.7888 4.17969 12.4716L5.32017 13.1078C5.53739 12.7587 5.89429 12.5802 6.28996 12.5802C6.75545 12.5802 6.98822 12.7897 6.98822 13.1388C6.98822 13.3639 6.92615 13.6121 6.49167 14.0156L4.45897 15.9164V16.8784H8.68726V15.6603H6.5925V15.6603Z" fill="#0C143B"/>
<path d="M13.5672 15.8385H14.374V14.6205H13.5672V13.6972H12.1164V14.6205H11.0147L13.2258 11.4473H11.6353L9.19922 14.8377V15.8385H12.0698V16.8781H13.5672V15.8385Z" fill="#0C143B"/>
<path d="M15.7721 17.6536L18.3323 10.3452H17.0212L14.4609 17.6536H15.7721Z" fill="#0C143B"/>
<path d="M19.6354 13.5032V12.6653H21.0629L19.232 16.8781H20.9078L22.8241 12.4093V11.4473H18.3242V13.5032H19.6354Z" fill="#0C143B"/>
</g>
<defs>
<clipPath id="clip0">
<rect width="27" height="27" fill="white" transform="translate(0 0.5)"/>
</clipPath>
</defs>
</svg>