<svg width="56" height="57" viewBox="0 0 56 57" fill="none" xmlns="http://www.w3.org/2000/svg">
<rect y="0.078125" width="56" height="56" rx="28" fill="rgb(42, 33, 115)"/>
<path fill-rule="evenodd" clip-rule="evenodd" d="M14.6768 16.7555L14.296 17.1367C14.1066 17.3261 14.0012 17.5837 14.0034 17.8515L14.0494 23.569L14.0958 29.3137C14.0978 29.5653 14.1946 29.8068 14.3668 29.9902L14.5173 30.1504C14.7473 30.3953 15.1915 30.6884 15.5043 30.8016C15.8172 30.9148 16.1206 31.1288 16.1788 31.2773C16.2371 31.4258 16.641 32.4806 17.0766 33.6213C17.5121 34.7621 17.984 35.8745 18.1251 36.0931C18.2662 36.3119 18.5993 36.6035 18.8655 36.7413C19.1316 36.879 19.6447 36.9891 20.0055 36.9858C20.4215 36.9822 22.6852 36.197 26.1883 34.8411C29.2279 33.6647 31.737 32.7238 31.7641 32.7501C31.7911 32.7763 31.7347 33.1388 31.6387 33.5553C31.5429 33.9719 31.4633 34.6627 31.462 35.0905C31.4608 35.5182 31.5683 36.2753 31.7006 36.7727C31.8328 37.2701 32.1429 38.0382 32.3893 38.4797C32.8117 39.2359 32.8375 39.4203 32.8375 41.6802V43.0781C32.8375 43.6304 33.2852 44.0781 33.8375 44.0781H37.4188H40.9946C41.549 44.0781 41.9975 43.6271 41.9945 43.0727L41.9523 35.3065L41.9057 26.7548C41.9049 26.6099 41.8727 26.467 41.8112 26.3358L41.4587 25.584C41.1615 24.95 40.4046 23.9975 39.1877 22.7267L37.6267 21.0964C37.4566 20.9187 37.3579 20.6846 37.3496 20.4388L37.3021 19.0408L37.2557 17.6804C37.2466 17.412 37.13 17.1587 36.932 16.9772L36.5964 16.6696L36.2379 16.341C36.0535 16.1719 35.8124 16.0781 35.5622 16.0781H25.6524H15.7681C15.5028 16.0781 15.2483 16.1836 15.0607 16.3713L14.6768 16.7555ZM36.0187 17.2749L36.1494 17.3978C36.3504 17.5868 36.4643 17.8504 36.4643 18.1262V23.3218V26.55C36.4643 27.4389 35.3914 27.886 34.7602 27.2601L34.1759 26.6808C32.9174 25.4329 31.7178 24.3255 31.5104 24.2202C31.3028 24.115 30.75 24.0287 30.2816 24.0287C29.6794 24.0287 29.2956 24.1345 28.9715 24.3896C28.7193 24.5882 28.3979 24.9733 28.2573 25.2454C28.1167 25.5174 28.0017 26.0822 28.0017 26.5003C28.0017 27.0666 28.1287 27.433 28.4984 27.9349C28.7716 28.3057 29.2768 28.8771 29.621 29.2046C29.9652 29.5323 30.2469 29.8628 30.2469 29.9392C30.2469 30.0156 26.9871 30.0781 23.0029 30.0781H16.1299C15.8906 30.0781 15.6592 29.9923 15.4778 29.8362L15.2744 29.6612L15.133 29.5396C14.9148 29.3519 14.7881 29.0794 14.7852 28.7916L14.7359 23.9143C14.6996 20.3215 14.7452 18.3688 14.8761 17.9232C15.0188 17.4377 15.2165 17.1981 15.6208 17.0204C16.0749 16.821 17.8741 16.7854 25.8723 16.8172L35.1791 16.8543C35.4323 16.8553 35.6757 16.9524 35.8602 17.1258L36.0187 17.2749ZM16.2578 20.3127V21.4732C16.2578 22.0255 16.7055 22.4732 17.2578 22.4732H18.5029H19.7481C20.3004 22.4732 20.7481 22.0255 20.7481 21.4732V20.3127V19.1522C20.7481 18.5999 20.3004 18.1522 19.7481 18.1522H18.5029H17.2578C16.7055 18.1522 16.2578 18.5999 16.2578 19.1522V20.3127ZM28.0017 19.0164C28.0017 19.6386 28.0449 19.7078 28.4335 19.7078C28.8221 19.7078 28.8653 19.6386 28.8653 19.0164C28.8653 18.3942 28.8221 18.325 28.4335 18.325C28.0449 18.325 28.0017 18.3942 28.0017 19.0164ZM29.9015 19.0164C29.9015 19.6386 29.9447 19.7078 30.3332 19.7078C30.7218 19.7078 30.765 19.6386 30.765 19.0164C30.765 18.3942 30.7218 18.325 30.3332 18.325C29.9447 18.325 29.9015 18.3942 29.9015 19.0164ZM31.8012 19.0164C31.8012 19.6386 31.8444 19.7078 32.233 19.7078C32.6216 19.7078 32.6648 19.6386 32.6648 19.0164C32.6648 18.3942 32.6216 18.325 32.233 18.325C31.8444 18.325 31.8012 18.3942 31.8012 19.0164ZM33.701 19.0164C33.701 19.6386 33.7442 19.7078 34.1328 19.7078C34.5213 19.7078 34.5645 19.6386 34.5645 19.0164C34.5645 18.3942 34.5213 18.325 34.1328 18.325C33.7442 18.325 33.701 18.3942 33.701 19.0164ZM20.0573 19.3621C20.0573 19.7999 19.9901 19.8806 19.6255 19.8806C19.2801 19.8806 19.1938 19.967 19.1938 20.3127C19.1938 20.6584 19.2801 20.7448 19.6255 20.7448C19.9901 20.7448 20.0573 20.8255 20.0573 21.2633C20.0573 21.5497 19.8251 21.7818 19.5388 21.7818H18.5029H17.4671C17.1807 21.7818 16.9486 21.5497 16.9486 21.2633C16.9486 20.8255 17.0158 20.7448 17.3804 20.7448C17.7258 20.7448 17.8121 20.6584 17.8121 20.3127C17.8121 19.967 17.7258 19.8806 17.3804 19.8806C17.0158 19.8806 16.9486 19.7999 16.9486 19.3621C16.9486 19.0757 17.1807 18.8436 17.4671 18.8436H18.5029H19.5388C19.8251 18.8436 20.0573 19.0757 20.0573 19.3621ZM40.7636 26.1028L41.1197 26.855C41.1816 26.9857 41.2144 27.1283 41.2159 27.273L41.271 32.8003L41.3183 37.5373C41.3238 38.0934 40.8745 38.5473 40.3183 38.5473H37.3449H33.9747C33.5984 38.5473 33.254 38.3361 33.0834 38.0007L32.8998 37.6399C32.5744 37.0002 32.4147 36.3747 32.3586 35.52C32.2938 34.5313 32.3594 34.0766 32.7142 33.0556L32.9538 32.3662C33.0743 32.0195 32.9951 31.6345 32.7475 31.3635L31.0071 29.4581C29.8289 28.1682 28.8174 26.9229 28.7592 26.6908C28.701 26.4589 28.7471 26.0425 28.8616 25.766C28.9818 25.4758 29.325 25.1417 29.673 24.9764C30.0486 24.7981 30.4498 24.7329 30.7365 24.8036C31.0208 24.8739 32.687 26.4023 35.0935 28.8001C38.8146 32.5077 39.0034 32.6685 39.2783 32.3644C39.5509 32.063 39.5205 32.0011 38.7088 31.2009L38.2228 30.7219C38.046 30.5477 38.1033 30.2497 38.3321 30.1535C38.5965 30.0422 39.0227 29.7015 39.2794 29.3964C39.6307 28.9785 39.7457 28.655 39.7457 28.0849C39.7457 27.6013 39.4652 26.6016 38.9685 25.3157C38.5411 24.2088 38.1948 23.2136 38.1989 23.1042C38.2033 22.9948 38.6806 23.4108 39.26 24.0287C39.8395 24.6466 40.5161 25.58 40.7636 26.1028ZM38.343 25.9834C38.7996 27.1793 39.0198 27.9975 38.9547 28.2571C38.8987 28.4801 38.6846 28.8199 38.4789 29.0119C38.2732 29.2039 37.9107 29.4094 37.6732 29.4685C37.4553 29.5227 37.2454 29.3555 37.2494 29.131L37.2929 26.6896C37.3212 25.1022 37.4085 23.8735 37.4869 23.9593C37.5653 24.045 37.9506 24.9559 38.343 25.9834ZM16.2578 24.4608C16.2578 24.8641 16.3153 24.8929 17.1213 24.8929C17.9273 24.8929 17.9848 24.8641 17.9848 24.4608C17.9848 24.0576 17.9273 24.0287 17.1213 24.0287C16.3153 24.0287 16.2578 24.0576 16.2578 24.4608ZM19.1938 24.4608C19.1938 24.8641 19.2513 24.8929 20.0573 24.8929C20.8633 24.8929 20.9208 24.8641 20.9208 24.4608C20.9208 24.0576 20.8633 24.0287 20.0573 24.0287C19.2513 24.0287 19.1938 24.0576 19.1938 24.4608ZM21.957 24.4608C21.957 24.8641 22.0146 24.8929 22.8206 24.8929C23.6266 24.8929 23.6841 24.8641 23.6841 24.4608C23.6841 24.0576 23.6266 24.0287 22.8206 24.0287C22.0146 24.0287 21.957 24.0576 21.957 24.4608ZM24.7203 24.4608C24.7203 24.8694 24.7721 24.8929 25.6702 24.8929C26.5683 24.8929 26.6201 24.8694 26.6201 24.4608C26.6201 24.0522 26.5683 24.0287 25.6702 24.0287C24.7721 24.0287 24.7203 24.0522 24.7203 24.4608ZM16.2578 27.2263C16.2578 27.6295 16.3153 27.6584 17.1213 27.6584C17.9273 27.6584 17.9848 27.6295 17.9848 27.2263C17.9848 26.823 17.9273 26.7942 17.1213 26.7942C16.3153 26.7942 16.2578 26.823 16.2578 27.2263ZM24.7203 27.2263C24.7203 27.6349 24.7721 27.6584 25.6702 27.6584C26.5683 27.6584 26.6201 27.6349 26.6201 27.2263C26.6201 26.8177 26.5683 26.7942 25.6702 26.7942C24.7721 26.7942 24.7203 26.8177 24.7203 27.2263ZM20.6531 31.0839C20.563 31.1618 19.945 31.4311 19.2801 31.6824C18.6152 31.9337 17.9391 32.188 17.7776 32.2474C17.5565 32.3287 17.4178 32.197 17.2163 31.7142C17.0691 31.3615 16.9486 31.0436 16.9486 31.0077C16.9486 30.9717 17.819 30.9423 18.8829 30.9423C19.9468 30.9423 20.7434 31.0061 20.6531 31.0839ZM31.5432 31.289C31.7156 31.4799 31.8247 31.667 31.7859 31.7052C31.7468 31.7434 29.1744 32.7542 26.0692 33.9511C22.9641 35.1482 20.1942 36.1275 19.9141 36.1275C19.634 36.1275 19.2421 35.9915 19.0433 35.825C18.8446 35.6586 18.486 34.9952 18.2465 34.3507C17.9209 33.4742 17.8657 33.1576 18.0275 33.095C18.1465 33.0489 19.4096 32.5523 20.8345 31.9916L23.2504 31.0408C23.3658 30.9954 23.4887 30.9718 23.6128 30.9713L27.3273 30.9572C31.0242 30.9432 31.2462 30.9606 31.5432 31.289ZM41.2137 41.3991V42.3003C41.2137 42.8526 40.766 43.3003 40.2137 43.3003H37.4142H34.5861C34.0451 43.3003 33.6022 42.8701 33.5865 42.3293L33.5649 41.5842C33.5374 40.6403 33.5551 39.7639 33.6039 39.6365C33.6753 39.4505 34.4359 39.4139 37.4532 39.4512L40.2261 39.4856C40.7735 39.4924 41.2137 39.9381 41.2137 40.4855V41.3991Z" fill="white" stroke="white" stroke-width="0.5"/>
</svg>