<svg 
width="37" 
height="36" 

fill="none" xmlns="http://www.w3.org/2000/svg">
<path 
    fill-rule="evenodd" 
    clip-rule="evenodd" 
    d="M36.902 18c0 9.941-8.059 18-18 18s-18-8.059-18-18 8.059-18 18-18 18 8.059 18 18zm-17.267 7.895h-1.413s-3.117.188-5.862-2.67c-2.994-3.117-5.638-9.303-5.638-9.303s-.152-.406.013-.602c.186-.22.693-.234.693-.234l3.377-.023s.319.054.546.22c.188.139.293.397.293.397s.546 1.38 1.27 2.629c1.41 2.438 2.067 2.971 2.546 2.71.698-.38.489-3.446.489-3.446s.013-1.113-.351-1.609c-.283-.384-.815-.496-1.05-.527-.19-.025.123-.467.527-.664.607-.298 1.68-.315 2.949-.302.988.01 1.272.071 1.659.165.896.216.868.91.808 2.406-.018.447-.04.966-.04 1.565 0 .135-.003.278-.007.426-.021.766-.045 1.644.459 1.97.259.167.891.025 2.474-2.663.75-1.273 1.313-2.77 1.313-2.77s.122-.268.313-.382c.196-.117.46-.08.46-.08l3.553-.023s1.068-.127 1.24.354c.182.506-.398 1.688-1.85 3.623-1.379 1.838-2.049 2.513-1.986 3.112.046.436.481.831 1.316 1.605 1.75 1.624 2.215 2.477 2.326 2.68l.02.036c.784 1.298-.867 1.4-.867 1.4l-3.157.044s-.678.134-1.57-.479c-.468-.32-.924-.843-1.359-1.342-.665-.762-1.28-1.466-1.803-1.3-.88.279-.853 2.175-.853 2.175s.007.405-.194.62c-.218.235-.644.282-.644.282z" 
    fill="#2A2173"/>
</svg>