<svg width="37" height="36" fill="none" xmlns="http://www.w3.org/2000/svg"><g clip-path="url(#clip0)" fill="#2A2173"><path d="M16.66 21.373l5.855-3.372-5.855-3.372v6.744z"/><path d="M18.902 0c-9.94 0-18 8.06-18 18s8.06 18 18 18 18-8.06 18-18-8.06-18-18-18zM30.15 18.018s0 3.65-.463 5.411a2.818 2.818 0 01-1.982 1.983c-1.76.463-8.802.463-8.802.463s-7.023 0-8.801-.482a2.819 2.819 0 01-1.983-1.983C7.655 21.67 7.655 18 7.655 18s0-3.65.463-5.41a2.876 2.876 0 011.983-2.002c1.76-.463 8.801-.463 8.801-.463s7.041 0 8.802.482a2.818 2.818 0 011.982 1.982c.482 1.76.463 5.43.463 5.43z"/></g><defs><clipPath id="clip0"><path fill="#fff" transform="translate(.902)" d="M0 0h36v36H0z"/></clipPath></defs></svg>