<?xml version="1.0" encoding="UTF-8"?>
<!DOCTYPE svg PUBLIC "-//W3C//DTD SVG 1.1//EN" "http://www.w3.org/Graphics/SVG/1.1/DTD/svg11.dtd">
<!-- Creator: CorelDRAW X8 -->
<svg xmlns="http://www.w3.org/2000/svg" xml:space="preserve" width="297mm" height="210mm" version="1.1" style="shape-rendering:geometricPrecision; text-rendering:geometricPrecision; image-rendering:optimizeQuality; fill-rule:evenodd; clip-rule:evenodd"
viewBox="0 0 29700 21000"
 xmlns:xlink="http://www.w3.org/1999/xlink">
 <defs>
  <style type="text/css">
   <![CDATA[
    .fil0 {fill:#EBECEC}
   ]]>
  </style>
 </defs>
 <g id="Слой_x0020_1">
  <metadata id="CorelCorpID_0Corel-Layer"/>
  <g id="_922444352">
   <path class="fil0" d="M14223 17116l-3 1398 983 0 0 -2989 -983 3c0,56 22,283 -21,320l-439 682c-69,104 -398,680 -434,708 12,-302 47,-1501 14,-1735 -106,34 -812,10 -985,10 -21,90 -19,2939 1,3015l984 -3c20,-97 -13,-234 16,-320 12,-36 99,-159 124,-198 147,-232 681,-1024 750,-1221l-7 330z"/>
   <path class="fil0" d="M17776 16712c-32,27 -6,22 -127,21l-924 0 0 533c72,0 1021,-26 1084,17l-14 125c-40,308 -258,488 -598,482 -165,-2 -299,-51 -394,-136 -55,-50 -193,-207 -185,-307l-956 139c81,323 399,631 636,770 769,449 2428,308 2525,-1206 56,-885 -407,-1488 -1143,-1643 -390,-82 -880,-44 -1210,110 -260,121 -640,451 -692,695 236,40 705,212 904,214 135,-217 251,-415 641,-372 301,34 419,246 453,558z"/>
   <path class="fil0" d="M20773 18518l1 -2262 686 -1c27,-99 10,-593 10,-733l-2357 0 0 723c141,0 580,-17 693,10l1 2263 966 0z"/>
   <path class="fil0" d="M21643 11156c70,-26 97,-47 159,-83 27,-16 42,-22 73,-41 36,-21 33,-15 42,-35l-147 -440c-22,-60 -20,-148 -93,-341 -17,-43 -21,-59 -36,-110l-649 -1994c-16,-54 -10,-64 -21,-125 -6,-33 -22,-65 -38,-105l-1100 -3430c-35,-199 -145,-418 -171,-566 -23,-37 -322,-200 -387,-223l156 486c22,72 16,101 63,243l369 1161c26,92 55,158 83,241 27,81 44,150 75,230l154 458c59,176 40,181 60,247 22,74 58,148 80,226 24,90 45,147 77,229l1116 3508c25,74 145,413 135,464z"/>
   <path class="fil0" d="M19797 6232c60,82 210,94 255,186l-8 3384c47,-20 9,10 28,-35 11,-27 7,-13 11,-44 2,-21 -2,-89 -2,-115l0 -987 0 -716 0 -868c-9,30 124,412 147,518 54,239 266,772 348,1055 32,111 17,103 76,279l169 523c112,299 179,613 256,808l334 1071 232 -135c10,-51 -110,-390 -135,-464l-1116 -3508c-32,-82 -53,-139 -77,-229 -22,-78 -58,-152 -80,-226 -20,-66 -1,-71 -60,-247l-154 -458c-31,-80 -48,-149 -75,-230 -28,-83 -57,-149 -83,-241l-369 -1161c-47,-142 -41,-171 -63,-243l-156 -486 -338 -195c22,131 87,243 115,365 61,265 241,790 325,1030 73,209 72,271 99,352l321 1017z"/>
   <path class="fil0" d="M22006 9372l7 569 5 718c-3,96 14,199 -14,288l10 -5c0,-252 14,-3346 -2,-3504 -11,-109 -159,-532 -201,-658l-428 -1329c-19,-62 -14,-114 -35,-174 -18,-49 -42,-110 -61,-165l-111 -352c-24,-31 -438,-271 -509,-293l240 751c91,262 39,141 84,303l806 2513c266,793 183,416 209,1338z"/>
   <path class="fil0" d="M22018 10659l-5 -718c-36,-41 -61,-119 -81,-176l-193 -646c-49,-201 -348,-984 -380,-1168 -24,-139 -271,-806 -342,-1058l-399 -1242c-48,-118 -12,-137 -108,-376l-232 -703c-33,-98 -98,-285 -91,-383l-13 -12c-2,-1 -6,-5 -8,-6l-47 -30c-33,-19 -46,-26 -72,-42 -58,-35 -98,-63 -167,-87l272 835c76,220 71,275 128,419l271 824c13,42 21,58 31,98 12,45 14,85 24,121 10,36 24,65 35,95 13,35 22,70 34,110 85,270 181,549 274,822 25,72 27,145 55,219l138 410c159,435 313,1071 465,1452l138 410c37,135 16,125 86,317l105 314c13,40 18,57 32,96 5,14 12,34 18,47 2,4 8,19 11,23 15,30 1,12 21,35z"/>
   <path class="fil0" d="M21917 10997l87 -50c28,-89 11,-192 14,-288 -20,-23 -6,-5 -21,-35 -3,-4 -9,-19 -11,-23 -6,-13 -13,-33 -18,-47 -14,-39 -19,-56 -32,-96l-105 -314c-70,-192 -49,-182 -86,-317l-138 -410c-152,-381 -306,-1017 -465,-1452l-138 -410c-28,-74 -30,-147 -55,-219 -93,-273 -189,-552 -274,-822 -12,-40 -21,-75 -34,-110 -11,-30 -25,-59 -35,-95 -10,-36 -12,-76 -24,-121 -10,-40 -18,-56 -31,-98l-271 -824c-57,-144 -52,-199 -128,-419l-272 -835 -218 -126c26,148 136,367 171,566l1100 3430c16,40 32,72 38,105 11,61 5,71 21,125l649 1994c15,51 19,67 36,110 73,193 71,281 93,341l147 440z"/>
   <path class="fil0" d="M15880 13049c51,70 183,120 279,176 63,37 220,140 281,148l25 -11c-24,-41 -38,-94 -58,-146 -40,-106 -22,-151 -98,-353 -23,-59 -36,-113 -55,-171 -18,-54 -34,-106 -57,-169 -13,-39 -18,-45 -30,-82l-165 -514c-60,-313 -362,-1028 -399,-1306 -26,-47 -206,-128 -269,-164 -89,-51 -195,-125 -287,-156 41,133 75,227 116,346l435 1370c22,64 27,113 45,181l270 809c15,32 1,8 17,29 -6,2 10,13 -50,13z"/>
   <path class="fil0" d="M15925 6602c45,14 39,25 57,80l95 339c72,246 246,670 295,898 41,190 180,568 251,780l107 329c25,75 36,161 64,242 32,94 280,813 288,900 -73,5 -65,-10 -112,28 5,13 1,14 8,26 110,27 111,80 203,30 56,-30 151,-75 178,-114 14,-76 -31,-150 -53,-222l-149 -464c-11,-44 -15,-76 -28,-117l-186 -571c-25,-87 -52,-138 -80,-226 -28,-86 -42,-152 -73,-233 -42,-109 -27,-126 -60,-230l-303 -905c-61,-152 -32,-122 -63,-244 -28,-107 -124,-340 -151,-462l-41 -7c-51,7 -81,31 -130,60 -22,12 -42,22 -61,35 -44,28 -23,4 -56,48z"/>
   <path class="fil0" d="M16172 6459l41 7c27,122 123,355 151,462 31,122 2,92 63,244l303 905c33,104 18,121 60,230 31,81 45,147 73,233 28,88 55,139 80,226l186 571c13,41 17,73 28,117l149 464c22,72 67,146 53,222l274 -153c-25,-41 -70,-172 -85,-216 -26,-76 -31,-160 -60,-247l-676 -2078c-15,-44 -26,-73 -37,-108l-291 -934c-18,-46 -13,-67 -57,-92 -49,5 -27,0 -79,29 -20,12 -39,24 -60,36 -45,26 -86,44 -116,82z"/>
   <path class="fil0" d="M16761 6118c62,27 78,138 99,202l268 811c18,55 13,56 27,118l71 235c25,74 56,152 81,226l150 461c22,78 62,153 76,231 38,217 150,485 221,697 28,84 45,154 72,234 25,75 59,144 79,227 13,49 47,195 39,241l276 -158c-72,-174 -100,-295 -155,-458l-720 -2260c-15,-48 -269,-794 -263,-878 0,-4 2,-10 3,-14 0,-3 4,-6 4,-14 1,-8 3,-10 6,-14 62,-10 24,7 74,30l5 -90c-15,-21 42,7 -28,-24 -37,-16 1,-6 -51,-12 -24,26 -109,64 -164,97 -54,32 -134,68 -170,112z"/>
   <path class="fil0" d="M22014 10942c36,-34 21,8 27,-76 1,-22 -1,-72 -2,-97 -13,-1345 0,-2744 0,-4093 0,-465 15,-957 2,-1425l-865 -491 111 352c19,55 43,116 61,165 21,60 16,112 35,174l428 1329c42,126 190,549 201,658 16,158 2,3252 2,3504z"/>
   <path class="fil0" d="M22006 9372c-26,-922 57,-545 -209,-1338l-806 -2513c-45,-162 7,-41 -84,-303l-240 -751c-31,-41 -215,-138 -280,-163l203 633c15,103 155,505 200,639 38,113 71,212 105,315l302 954c35,102 60,210 98,306 93,237 53,215 90,328l319 937c72,234 86,364 196,643 36,90 61,229 106,313z"/>
   <path class="fil0" d="M22013 9941l-7 -569c-45,-84 -70,-223 -106,-313 -110,-279 -124,-409 -196,-643l-319 -937c-37,-113 3,-91 -90,-328 -38,-96 -63,-204 -98,-306l-302 -954c-34,-103 -67,-202 -105,-315 -45,-134 -185,-536 -200,-639l-203 -633 -200 -115c-7,98 58,285 91,383l232 703c96,239 60,258 108,376l399 1242c71,252 318,919 342,1058 32,184 331,967 380,1168l193 646c20,57 45,135 81,176z"/>
   <path class="fil0" d="M20081 7905l483 1524c30,75 35,159 57,232 25,80 51,137 77,213l213 658c32,87 49,117 67,222l175 551c17,47 29,58 36,115l222 -129 -334 -1071c-77,-195 -144,-509 -256,-808l-169 -523c-59,-176 -44,-168 -76,-279 -82,-283 -294,-816 -348,-1055 -23,-106 -156,-488 -147,-518l0 868z"/>
   <path class="fil0" d="M15672 6748l53 -1 134 411c69,174 114,365 162,531l728 2251c13,59 -3,56 23,103l-40 9c32,43 64,53 117,83 35,21 69,42 121,63 47,-38 39,-23 112,-28 -8,-87 -256,-806 -288,-900 -28,-81 -39,-167 -64,-242l-107 -329c-71,-212 -210,-590 -251,-780 -49,-228 -223,-652 -295,-898l-95 -339c-18,-55 -12,-66 -57,-80 -56,6 -221,102 -253,146z"/>
   <path class="fil0" d="M15447 6878l42 8c3,115 87,262 114,370 114,454 224,682 348,1102 76,259 130,474 228,738 45,120 73,244 120,363l108 374 -34 12c41,48 308,201 359,207l40 -9c-26,-47 -10,-44 -23,-103l-728 -2251c-48,-166 -93,-357 -162,-531l-134 -411 -53 1c-54,7 -63,21 -120,54 -46,27 -76,38 -105,76z"/>
   <path class="fil0" d="M17336 13643l339 -194c-17,-148 -111,-288 -143,-502 -8,-57 -19,-70 -39,-122l-120 -364c-30,-77 -57,-157 -80,-242l-120 -363c-16,-57 -16,-71 -30,-131 -47,-205 -81,-159 -125,-176 -61,-29 -27,31 -40,-55l0 -49c25,-25 -36,-46 38,-13 -31,-30 -413,-245 -460,-266 19,105 64,209 98,309l100 302c16,59 18,98 35,158 19,66 27,99 51,159 43,108 63,209 104,315l202 603c15,86 10,92 35,159 21,57 37,88 56,153 35,119 67,202 99,319z"/>
   <path class="fil0" d="M18764 5636c63,86 305,158 357,231l37 -2 25 -11c-76,-121 -124,-404 -157,-514l-227 -675c-19,-60 -33,-114 -55,-169 -77,-194 -75,-294 -98,-353l-226 -678c-30,-91 -105,-255 -102,-355 -1,-2 -4,-7 -20,-19 -2,-2 -6,-5 -8,-6 -2,-2 -7,-4 -9,-6 -19,-12 -36,-20 -52,-29 -105,-58 -207,-133 -323,-177l356 1031c101,372 257,837 384,1210l146 483c17,38 4,12 17,36l-45 3z"/>
   <path class="fil0" d="M16593 6217l150 431c49,169 80,314 141,471 59,150 102,306 157,456l136 475c83,274 284,804 345,1025 47,172 17,108 102,365 28,83 50,149 77,230 23,70 52,150 69,233 62,-21 142,-58 174,-102 8,-46 -26,-192 -39,-241 -20,-83 -54,-152 -79,-227 -27,-80 -44,-150 -72,-234 -71,-212 -183,-480 -221,-697 -14,-78 -54,-153 -76,-231l-150 -461c-25,-74 -56,-152 -81,-226l-71 -235c-14,-62 -9,-63 -27,-118l-268 -811c-21,-64 -37,-175 -99,-202 -56,7 -134,52 -168,99z"/>
   <path class="fil0" d="M18969 10423c88,246 85,302 148,490 76,226 314,886 343,1077 18,119 132,258 89,375l387 -224c0,-79 -328,-1080 -381,-1223 -79,-213 -117,-426 -185,-622 -12,-36 -10,-50 -53,-64 -65,11 -305,153 -348,191z"/>
   <path class="fil0" d="M17186 11454l46 7c-4,63 4,67 -67,86 -50,13 -95,7 -147,2 44,17 78,-29 125,176 14,60 14,74 30,131l120 363c23,85 50,165 80,242l120 364c20,52 31,65 39,122 32,214 126,354 143,502l328 -192c23,-90 -52,-211 -87,-389l-479 -1526 -42 -1c-52,6 -58,21 -109,48 -42,23 -70,27 -100,65z"/>
   <path class="fil0" d="M20081 8621c-21,33 24,107 39,153 18,60 35,125 56,186 23,68 35,121 51,189l328 995c46,122 21,108 47,194l391 1195 196 -113c-7,-57 -19,-68 -36,-115l-175 -551c-18,-105 -35,-135 -67,-222l-213 -658c-26,-76 -52,-133 -77,-213 -22,-73 -27,-157 -57,-232l-483 -1524 0 716z"/>
   <path class="fil0" d="M16717 13533c29,34 29,32 75,59 68,38 163,110 233,118 53,-52 38,-85 16,-142l-280 -851c-26,-143 -63,-219 -105,-345 -40,-120 -72,-222 -113,-338l-164 -514c-17,-88 -16,-103 -46,-178 -29,-75 -101,-281 -112,-363 -33,-43 -285,-180 -338,-195 27,139 88,221 114,347 60,281 176,591 267,861 18,55 44,111 59,166 19,68 38,114 49,176 17,94 28,101 51,176l338 1013 -44 10z"/>
   <path class="fil0" d="M12452 10305l236 1 282 4 246 2 311 5 224 0 177 0 325 0 279 0 292 0c4,123 229,771 295,965l505 1591c1,-3 3,9 5,9l-33 3c30,45 231,157 284,164 60,0 44,-11 50,-13 -16,-21 -2,3 -17,-29l-270 -809c-18,-68 -23,-117 -45,-181l-435 -1370c-41,-119 -75,-213 -116,-346 -14,-12 12,-3 -29,-12l-139 -4c-860,5 -1869,-25 -2684,0l5 32c81,-22 166,-12 252,-12z"/>
   <path class="fil0" d="M20081 9608c5,74 58,183 77,245 18,56 24,81 43,135 21,64 17,76 33,145 18,82 55,172 83,254l262 785c25,80 7,69 72,267 17,51 30,84 45,133 27,82 24,65 9,108 -1,4 -10,20 -12,25l300 -172 -391 -1195c-26,-86 -1,-72 -47,-194l-328 -995c-16,-68 -28,-121 -51,-189 -21,-61 -38,-126 -56,-186 -15,-46 -60,-120 -39,-153l0 987z"/>
   <path class="fil0" d="M18220 9643l157 -87c1,-1 4,-5 6,-7 -17,-87 -54,-130 -72,-220 -85,-415 -285,-821 -383,-1211l-101 -350c-51,-154 -94,-281 -145,-435 -42,-126 -128,-341 -147,-451 -26,-155 -13,-76 -62,-226 -28,-82 -47,-141 -71,-220l-143 -427c-2,-5 -11,-23 -13,-28l-72 -36 -5 90c-50,-23 -12,-40 -74,-30 -3,4 -5,6 -6,14 0,8 -4,11 -4,14 -1,4 -3,10 -3,14 -6,84 248,830 263,878l720 2260c55,163 83,284 155,458z"/>
   <path class="fil0" d="M17025 13710c60,82 95,70 172,23l139 -90c-32,-117 -64,-200 -99,-319 -19,-65 -35,-96 -56,-153 -25,-67 -20,-73 -35,-159l-202 -603c-41,-106 -61,-207 -104,-315 -24,-60 -32,-93 -51,-159 -17,-60 -19,-99 -35,-158l-100 -302c-34,-100 -79,-204 -98,-309l-335 -187c11,82 83,288 112,363 30,75 29,90 46,178l164 514c41,116 73,218 113,338 42,126 79,202 105,345l280 851c22,57 37,90 -16,142z"/>
   <path class="fil0" d="M19429 6020c33,50 126,87 177,116 34,20 55,33 90,54 49,29 50,36 101,42l-321 -1017c-27,-81 -26,-143 -99,-352 -84,-240 -264,-765 -325,-1030 -28,-122 -93,-234 -115,-365 -26,-41 -273,-172 -338,-195 23,72 43,116 62,180l383 1196c20,66 15,117 39,187l339 1014c17,52 26,135 42,164l-35 6z"/>
   <path class="fil0" d="M16411 2832c49,23 43,39 59,89l116 351c54,163 99,303 151,462 18,53 17,75 30,130l258 781c24,-18 31,-30 58,-39 41,-14 70,-9 118,-10l29 159c23,35 175,113 218,121l-163 -547c-37,-131 -101,-257 -135,-414 -18,-83 -11,-84 -39,-152l-355 -1104 -40 -4c-64,9 -265,121 -305,177z"/>
   <path class="fil0" d="M15266 12695c39,52 102,71 159,105 69,41 111,74 171,85l33 -3c-2,0 -4,-12 -5,-9l-505 -1591c-66,-194 -291,-842 -295,-965l-292 0 191 587c92,254 83,284 133,447l244 739c66,174 142,505 191,592l-25 13z"/>
   <path class="fil0" d="M14541 12276c42,54 130,90 189,123 65,37 133,94 201,102 27,-15 16,-2 -19,-95 -62,-168 -117,-434 -217,-702 -36,-96 -58,-189 -89,-283l-155 -476c-41,-214 -134,-418 -198,-628l-325 0c52,82 127,380 155,496l287 876c82,223 68,272 113,387 18,47 28,72 44,118 30,86 37,69 14,82z"/>
   <path class="fil0" d="M18689 9373l195 -112c-12,-67 -35,-141 -55,-194 -22,-57 -43,-123 -63,-180l-161 -547c-21,-60 -38,-97 -60,-166l-234 -700c-19,-65 -20,-130 -44,-199l-177 -515c-44,-126 -73,-242 -119,-360 -20,-35 -217,-139 -274,-159l198 573c27,71 22,133 48,209 89,263 170,509 258,773l96 291c47,205 110,395 179,594 12,33 25,65 35,94 80,238 126,353 178,598z"/>
   <path class="fil0" d="M16716 2655l40 4 355 1104c28,68 21,69 39,152 34,157 98,283 135,414l163 547c30,45 293,194 342,199 17,-26 -19,-104 -32,-139 -23,-62 -34,-84 -54,-156l-309 -980c-67,-202 -218,-619 -256,-808 -9,-49 -34,-112 -54,-171 -29,-88 -69,-249 -114,-313 -53,6 -88,36 -137,65 -22,12 -46,24 -63,35l-55 47z"/>
   <path class="fil0" d="M19158 5865c44,49 223,147 271,155l35 -6c-16,-29 -25,-112 -42,-164l-339 -1014c-24,-70 -19,-121 -39,-187l-383 -1196c-19,-64 -39,-108 -62,-180 -24,-42 -214,-139 -281,-163 -3,100 72,264 102,355l226 678c23,59 21,159 98,353 22,55 36,109 55,169l227 675c33,110 81,393 157,514l-25 11z"/>
   <path class="fil0" d="M14400 3993c50,63 49,149 72,238 55,214 350,1001 377,1155 21,120 97,336 145,452l-227 0 -187 0 -226 2 -189 5 -231 3 -189 4 -222 3 -401 2 -286 0 -325 2 -299 2c1,-146 -17,-503 16,-622 -64,59 -30,487 -29,630 729,21 1642,0 2406,0 227,-1 550,42 666,-112 -26,-38 -95,-332 -148,-475l-237 -714c-55,-162 -38,-152 -64,-242 -35,-117 -137,-354 -148,-457l-51 -6c-59,9 -186,80 -223,130z"/>
   <path class="fil0" d="M16440 13373c37,48 225,153 277,160l44 -10 -338 -1013c-23,-75 -34,-82 -51,-176 -11,-62 -30,-108 -49,-176 -15,-55 -41,-111 -59,-166 -91,-270 -207,-580 -267,-861 -26,-126 -87,-208 -114,-347 -27,-37 -218,-140 -280,-163 37,278 339,993 399,1306l165 514c12,37 17,43 30,82 23,63 39,115 57,169 19,58 32,112 55,171 76,202 58,247 98,353 20,52 34,105 58,146l-25 11z"/>
   <path class="fil0" d="M16427 6312c44,25 39,46 57,92l291 934c11,35 22,64 37,108l676 2078c29,87 34,171 60,247 15,44 60,175 85,216l137 -84c-17,-83 -46,-163 -69,-233 -27,-81 -49,-147 -77,-230 -85,-257 -55,-193 -102,-365 -61,-221 -262,-751 -345,-1025l-136 -475c-55,-150 -98,-306 -157,-456 -61,-157 -92,-302 -141,-471l-150 -431c-57,7 -131,48 -166,95z"/>
   <path class="fil0" d="M14931 12501c36,49 275,186 335,194l25 -13c-49,-87 -125,-418 -191,-592l-244 -739c-50,-163 -41,-193 -133,-447l-191 -587 -279 0c64,210 157,414 198,628l155 476c31,94 53,187 89,283 100,268 155,534 217,702 35,93 46,80 19,95z"/>
   <path class="fil0" d="M17165 2515l332 993c21,75 25,102 44,182l274 821c68,173 150,552 204,665l-34 11c34,42 93,69 149,101 57,32 99,69 159,76 32,-46 -16,-117 -31,-157l-385 -1209c-35,-126 -83,-231 -113,-339 -47,-168 -200,-568 -225,-694 -36,-184 -66,-210 -110,-366 -24,-34 -58,-45 -99,-68 -57,-33 -64,-49 -119,-54 -41,45 5,17 -46,38z"/>
   <path class="fil0" d="M18526 9466l163 -93c-52,-245 -98,-360 -178,-598 -10,-29 -23,-61 -35,-94 -69,-199 -132,-389 -179,-594l-96 -291c-88,-264 -169,-510 -258,-773 -26,-76 -21,-138 -48,-209l-198 -573 -225 -130c28,100 44,125 62,227 15,81 44,131 67,207 102,335 245,713 331,1039l338 1032c12,38 22,60 31,97l93 326c35,103 128,342 132,427z"/>
   <path class="fil0" d="M18487 5476c35,47 219,153 277,160l45 -3c-13,-24 0,2 -17,-36l-146 -483c-127,-373 -283,-838 -384,-1210l-356 -1031c-24,-41 -196,-129 -252,-144 35,142 80,221 117,346 19,67 30,107 52,173l383 1196c60,182 254,856 315,990 13,28 4,12 17,30 -27,10 35,18 -51,12z"/>
   <path class="fil0" d="M17395 11341l42 1 479 1526c35,178 110,299 87,389 68,-24 265,-122 290,-166 -5,-71 -41,-177 -65,-245l-390 -1206c-22,-66 -122,-406 -161,-463 -45,4 -243,113 -282,164z"/>
   <path class="fil0" d="M15908 3121l50 10c57,120 39,172 63,242l534 1649c54,-23 88,-47 138,-76 24,-14 43,-23 63,-35 50,-30 33,-12 39,-34 1,-57 -16,-78 -30,-127 -13,-46 -10,-83 -24,-138l-322 -951c-14,-53 -25,-84 -37,-123 -15,-49 -12,-81 -27,-134l-42 -120c-11,-36 -23,-74 -39,-121 -20,-60 -47,-170 -88,-202 -56,7 -97,41 -149,71 -23,13 -49,26 -72,41 -43,27 -25,8 -57,48z"/>
   <path class="fil0" d="M18383 9549l143 -83c-4,-85 -97,-324 -132,-427l-93 -326c-9,-37 -19,-59 -31,-97l-338 -1032c-86,-326 -229,-704 -331,-1039 -23,-76 -52,-126 -67,-207 -18,-102 -34,-127 -62,-227l-226 -130c2,5 11,23 13,28l143 427c24,79 43,138 71,220 49,150 36,71 62,226 19,110 105,325 147,451 51,154 94,281 145,435l101 350c98,390 298,796 383,1211 18,90 55,133 72,220z"/>
   <path class="fil0" d="M15282 6973c47,46 150,405 178,490 54,161 132,354 161,516 22,120 76,226 113,338l272 856c13,77 29,107 50,176l111 340 -49 9c33,42 20,26 68,53 24,14 33,17 61,34 44,26 75,55 126,60l34 -12 -108 -374c-47,-119 -75,-243 -120,-363 -98,-264 -152,-479 -228,-738 -124,-420 -234,-648 -348,-1102 -27,-108 -111,-255 -114,-370l-42 -8c-47,6 -39,5 -90,35 -44,25 -46,22 -75,60z"/>
   <path class="fil0" d="M19317 10232c43,14 41,28 53,64 68,196 106,409 185,622 53,143 381,1144 381,1223l230 -125c3,-2 13,-6 14,-12 1,-4 4,-4 6,-6 -18,-89 -41,-161 -73,-250l-277 -835c-25,-149 -138,-460 -190,-615 -56,-167 -32,-173 -98,-200 -51,5 -201,87 -231,134z"/>
   <path class="fil0" d="M16186 2961c41,32 68,142 88,202 16,47 28,85 39,121l42 120c15,53 12,85 27,134 12,39 23,70 37,123l322 951c14,55 11,92 24,138 14,49 31,70 30,127 61,-21 181,-83 210,-119 9,-64 -2,-57 20,-113l-258 -781c-13,-55 -12,-77 -30,-130 -52,-159 -97,-299 -151,-462l-116 -351c-16,-50 -10,-66 -59,-89 -61,9 -186,79 -225,129z"/>
   <path class="fil0" d="M18293 5364c31,41 48,43 96,72 46,27 46,34 98,40 86,6 24,-2 51,-12 -13,-18 -4,-2 -17,-30 -61,-134 -255,-808 -315,-990l-383 -1196c-22,-66 -33,-106 -52,-173 -37,-125 -82,-204 -117,-346 -33,-45 -161,-111 -225,-130 44,156 74,182 110,366 25,126 178,526 225,694 30,108 78,213 113,339l385 1209c15,40 63,111 31,157z"/>
   <path class="fil0" d="M14818 3751c81,18 56,37 102,189 27,86 58,158 85,238l306 983c29,88 153,416 147,488 67,-22 196,-86 232,-134l-456 -1438c-40,-177 -135,-435 -134,-501 -76,38 -238,117 -282,175z"/>
   <path class="fil0" d="M18513 10693c76,30 43,45 101,206 63,172 38,62 71,252l235 715c63,207 106,264 151,493 17,81 77,167 60,248l238 -137c-6,-96 -42,-164 -66,-249 -36,-135 -216,-617 -234,-717 -29,-150 -175,-548 -227,-723 -25,-84 -47,-190 -102,-217 -46,3 -165,76 -207,110l-20 19z"/>
   <path class="fil0" d="M15249 9200l0 -1153 0 -722c-13,84 330,970 362,1129 43,216 244,799 324,1014l18 136c3,3 8,7 10,9l69 51c43,26 41,29 86,34l49 -9 -111 -340c-21,-69 -37,-99 -50,-176l-272 -856c-37,-112 -91,-218 -113,-338 -29,-162 -107,-355 -161,-516 -28,-85 -131,-444 -178,-490l-61 19 0 1956c0,141 -24,209 28,252z"/>
   <path class="fil0" d="M16971 2508c45,64 85,225 114,313 20,59 45,122 54,171 38,189 189,606 256,808l309 980c20,72 31,94 54,156 13,35 49,113 32,139l195 112 34 -11c-54,-113 -136,-492 -204,-665l-274 -821c-19,-80 -23,-107 -44,-182l-332 -993 -96 0c-40,-43 -1,-26 -44,-37 -46,3 -25,-12 -54,30z"/>
   <path class="fil0" d="M13651 11763c15,18 6,9 27,27 27,22 309,191 361,198 34,-18 15,-1 15,-25l-122 -368c-48,-145 -90,-271 -141,-423l-66 -207c-19,-52 -25,-57 -35,-114 -9,-52 -11,-66 -27,-114l-136 -420 -311 -5 466 1439 -31 12z"/>
   <path class="fil0" d="M18884 9261l102 -60 0 -182 -194 -606c-19,-57 -37,-95 -53,-141l-141 -487c-70,-214 -134,-404 -205,-617 -36,-108 -73,-190 -91,-313 -13,-83 -83,-225 -106,-325l-225 -130c46,118 75,234 119,360l177 515c24,69 25,134 44,199l234 700c22,69 39,106 60,166l161 547c20,57 41,123 63,180 20,53 43,127 55,194z"/>
   <path class="fil0" d="M18740 10564c55,27 77,133 102,217 52,175 198,573 227,723 18,100 198,582 234,717 24,85 60,153 66,249l180 -105c43,-117 -71,-256 -89,-375 -29,-191 -267,-851 -343,-1077 -63,-188 -60,-244 -148,-490 -47,18 -83,42 -120,63l-109 78z"/>
   <path class="fil0" d="M14623 3863l51 6c11,103 113,340 148,457 26,90 9,80 64,242l237 714c53,143 122,437 148,475 44,-14 171,-71 187,-108 6,-72 -118,-400 -147,-488l-306 -983c-27,-80 -58,-152 -85,-238 -46,-152 -21,-171 -102,-189 -60,7 -157,62 -195,112z"/>
   <path class="fil0" d="M10291 6351l153 0 191 0 136 0 157 0 208 1 130 0 157 1 138 0 223 0 221 1 122 0 215 2 244 1 255 2 165 1 141 1 280 5 270 3 180 0 208 0 233 0 0 844c111,1 367,33 416,-54l5 -756c-68,-103 -376,-60 -521,-60 -613,0 -3974,-30 -4036,17l109 -9z"/>
   <path class="fil0" d="M18180 10887c84,76 125,375 159,464l386 1209c24,85 74,166 51,252 61,-22 184,-83 215,-126 0,-89 -272,-812 -304,-958l-70 -252c-41,-123 -212,-662 -243,-701 -53,7 -57,18 -107,48 -8,4 -46,26 -51,30 -45,33 -16,9 -36,34z"/>
   <path class="fil0" d="M19548 10098c66,27 42,33 98,200 52,155 165,466 190,615l277 835c32,89 55,161 73,250l202 -112c-33,-69 -59,-167 -85,-245l-217 -701c-29,-88 -52,-153 -81,-241 -57,-178 -181,-545 -215,-707l-48 -7c-42,6 -67,24 -107,47 -4,3 -50,30 -51,31 -35,26 -14,6 -36,35z"/>
   <path class="fil0" d="M15213 3522c63,29 77,135 100,204 71,215 274,789 308,964 15,78 50,167 78,245l154 486 169 -97c16,-60 -25,-206 -45,-265l-312 -944c-63,-155 -35,-126 -64,-242 -29,-115 -135,-347 -146,-462l-47 -1c-46,4 -130,55 -167,85l-19 18c-2,-3 -6,6 -9,9z"/>
   <path class="fil0" d="M18986 9019c0,-154 26,-592 -13,-704l-276 -820c-16,-53 -15,-92 -29,-148 -42,-163 -180,-502 -224,-673 -30,-41 -185,-121 -248,-144 23,100 93,242 106,325 18,123 55,205 91,313 71,213 135,403 205,617l141 487c16,46 34,84 53,141l194 606z"/>
   <path class="fil0" d="M20044 9802c-45,17 -105,45 -137,89 45,18 40,34 55,79 15,47 28,85 38,124 52,189 206,564 231,736l81 241c36,119 230,650 220,727l161 -93c2,-5 11,-21 12,-25 15,-43 18,-26 -9,-108 -15,-49 -28,-82 -45,-133 -65,-198 -47,-187 -72,-267l-262 -785c-28,-82 -65,-172 -83,-254 -16,-69 -12,-81 -33,-145 -19,-54 -25,-79 -43,-135 -19,-62 -72,-171 -77,-245 0,26 4,94 2,115 -4,31 0,17 -11,44 -19,45 19,15 -28,35z"/>
   <path class="fil0" d="M18986 9019l0 182c49,-44 26,-120 26,-253l0 -1950c-66,-55 -497,-303 -568,-324 44,171 182,510 224,673 14,56 13,95 29,148l276 820c39,112 13,550 13,704z"/>
   <path class="fil0" d="M12813 4908c45,51 125,383 151,476 21,74 51,164 80,242 26,69 48,163 78,231l401 -2c-8,-96 -181,-530 -208,-663 -33,-166 -65,-224 -112,-370 -15,-45 -15,-81 -58,-104 -62,8 -96,41 -171,84l-123 70c-3,3 -7,6 -10,8l-28 28z"/>
   <path class="fil0" d="M17677 11177c39,57 139,397 161,463l390 1206c24,68 60,174 65,245l194 -107c-9,-87 -46,-157 -78,-254 -82,-246 -126,-448 -218,-701 -63,-173 -277,-827 -287,-948l-61 1c-49,6 -80,25 -127,60l-39 35z"/>
   <path class="fil0" d="M15714 3233l51 10c7,79 50,148 74,232 25,90 43,152 73,233l298 943c28,85 48,145 77,229 26,80 72,173 67,254l201 -112 -534 -1649c-24,-70 -6,-122 -63,-242l-50 -10c-51,6 -57,17 -106,46 -6,4 -51,31 -51,31 -42,31 -16,9 -37,35z"/>
   <path class="fil0" d="M11398 7704l234 10 159 9 0 806 -159 0 -234 0 -169 0 -224 5 -282 7 -141 0 -281 4 -241 1 -179 1 -153 0 -248 2 -256 1 -173 0 -196 0 -272 1 -233 0 -245 1c-95,0 -151,9 -241,-16 50,53 423,25 524,25l1642 -1c720,-1 1472,-23 2187,-1l-5 -8 -5 -828c-44,-5 -86,-7 -131,-10l-127 -19c-3,-6 -10,-4 -15,-6l-669 0c17,9 2,5 40,13 30,6 -3,1 29,4 21,2 43,0 64,-1z"/>
   <path class="fil0" d="M15249 8047c-4,63 182,576 214,669 43,124 135,396 157,520l56 170c1,2 4,7 6,11l-34 9c3,3 7,8 9,10 2,2 7,7 9,9 3,2 7,6 10,9l277 150 -18 -136c-80,-215 -281,-798 -324,-1014 -32,-159 -375,-1045 -362,-1129l0 722z"/>
   <path class="fil0" d="M14182 4118c50,25 40,25 60,85l108 327c80,220 128,461 201,669 30,84 49,125 74,216l142 423 227 0c-48,-116 -124,-332 -145,-452 -27,-154 -322,-941 -377,-1155 -23,-89 -22,-175 -72,-238 -51,6 -74,27 -120,53l-98 72z"/>
   <path class="fil0" d="M17795 17408c-68,46 -75,34 -162,32 -158,-3 -989,-9 -1015,7 -8,100 130,257 185,307 95,85 229,134 394,136 340,6 558,-174 598,-482z"/>
   <path class="fil0" d="M14039 11988c20,25 -7,1 37,35 47,35 188,119 241,124 30,-28 10,-36 -6,-74l-227 -696c-5,-17 -24,-101 -33,-127 -49,-150 -107,-313 -153,-459 -40,-128 -137,-378 -147,-474l-224 0 136 420c16,48 18,62 27,114 10,57 16,62 35,114l66 207c51,152 93,278 141,423l122 368c0,24 19,7 -15,25z"/>
   <path class="fil0" d="M13876 7700l183 0 242 17 0 812 -242 0 -183 6 -192 6 -211 3 -167 1 -248 3 -150 1 -191 1 -178 0 -153 1 -174 0 5 8c415,10 844,0 1260,0 181,0 1146,30 1214,-29l2 -810c-77,-63 -839,-34 -1006,-32l-2 7 191 5z"/>
   <path class="fil0" d="M15100 3576c-1,66 94,324 134,501l456 1438c52,-15 46,-14 95,-44l68 -50 -154 -486c-28,-78 -63,-167 -78,-245 -34,-175 -237,-749 -308,-964 -23,-69 -37,-175 -100,-204 -48,5 -75,31 -113,54z"/>
   <path class="fil0" d="M19742 9985l48 7c34,162 158,529 215,707 29,88 52,153 81,241l217 701c26,78 52,176 85,245l144 -88c10,-77 -184,-608 -220,-727l-81 -241c-25,-172 -179,-547 -231,-736 -10,-39 -23,-77 -38,-124 -15,-45 -10,-61 -55,-79 -49,5 -37,4 -89,35 -49,29 -45,19 -76,59z"/>
   <path class="fil0" d="M13844 4312c64,36 37,33 79,165 17,56 43,123 66,191l117 399c37,146 87,243 128,388 30,106 117,300 120,385l226 -2c-8,-67 -37,-128 -59,-187 -28,-73 -41,-126 -58,-214l-263 -802c-44,-135 -110,-308 -119,-433l-71 15c-45,6 -44,8 -88,35l-68 51c-2,-3 -7,6 -10,9z"/>
   <path class="fil0" d="M17843 11082l61 -1c10,121 224,775 287,948 92,253 136,455 218,701 32,97 69,167 78,254l144 -89c21,-105 -93,-344 -136,-492 -47,-163 -102,-314 -156,-472 -28,-82 -34,-170 -67,-256l-162 -481c-50,-150 -37,-185 -96,-211 -41,4 -54,15 -95,39 -46,26 -46,20 -76,60z"/>
   <path class="fil0" d="M15573 3315l46 9c0,130 227,752 292,948l109 376c41,145 180,487 170,579l164 -93c5,-81 -41,-174 -67,-254 -29,-84 -49,-144 -77,-229l-298 -943c-30,-81 -48,-143 -73,-233 -24,-84 -67,-153 -74,-232l-51 -10c-52,6 -110,41 -141,82z"/>
   <path class="fil0" d="M15408 3410l47 1c11,115 117,347 146,462 29,116 1,87 64,242l312 944c20,59 61,205 45,265 59,-19 139,-64 168,-97 10,-92 -129,-434 -170,-579l-109 -376c-65,-196 -292,-818 -292,-948l-46 -9c-46,4 -92,32 -138,69l-27 26z"/>
   <path class="fil0" d="M18374 10775c31,39 202,578 243,701l70 252c32,146 304,869 304,958 47,-13 120,-49 140,-79 17,-81 -43,-167 -60,-248 -45,-229 -88,-286 -151,-493l-235 -715c-33,-190 -8,-80 -71,-252 -58,-161 -25,-176 -101,-206 -50,6 -110,44 -139,82z"/>
   <path class="fil0" d="M14317 12147c35,46 164,122 224,129 23,-13 16,4 -14,-82 -16,-46 -26,-71 -44,-118 -45,-115 -31,-164 -113,-387l-287 -876c-28,-116 -103,-414 -155,-496l-177 0c10,96 107,346 147,474 46,146 104,309 153,459 9,26 28,110 33,127l227 696c16,38 36,46 6,74z"/>
   <path class="fil0" d="M13338 11582c29,40 266,177 313,181l31 -12 -466 -1439 -246 -2 403 1264 -35 8z"/>
   <path class="fil0" d="M18014 10983c59,26 46,61 96,211l162 481c33,86 39,174 67,256 54,158 109,309 156,472 43,148 157,387 136,492l145 -83c23,-86 -27,-167 -51,-252l-386 -1209c-34,-89 -75,-388 -159,-464 -50,4 -34,2 -88,34 -12,7 -29,18 -40,26 -35,26 -16,9 -38,36z"/>
   <path class="fil0" d="M12949 11357c43,57 125,87 188,123 70,40 131,93 201,102l35 -8 -403 -1264 -282 -4c5,44 25,82 38,127l210 629c15,62 30,218 74,255 -28,59 59,37 -61,40z"/>
   <path class="fil0" d="M13502 4511c6,5 99,292 108,319 20,61 35,104 57,169 23,70 24,115 43,181l224 668 231 -3c-51,-64 -79,-271 -110,-362l-242 -725c-26,-78 -81,-316 -138,-346 -53,6 -139,47 -173,99z"/>
   <path class="fil0" d="M12038 9044l129 1 114 0 140 1 122 0 223 1 240 2 195 2 192 2 189 4 116 3 118 0 144 0 173 0 135 0 147 0 0 822 -147 0 -135 0 -173 0 -144 0 -118 1 -116 2 -189 3 -192 3 -195 2 -240 2 -223 1 -122 0 -140 1 -114 0 -129 1 -130 -10 -26 -5c100,62 1170,26 1386,25 232,0 1229,27 1369,-11 28,-92 26,-749 3,-850 -38,-23 -2036,-13 -2403,-13 -92,0 -255,-27 -323,21l124 -11z"/>
   <path class="fil0" d="M14010 4217l71 -15c9,125 75,298 119,433l263 802c17,88 30,141 58,214 22,59 51,120 59,187l187 0 -142 -423c-25,-91 -44,-132 -74,-216 -73,-208 -121,-449 -201,-669l-108 -327c-20,-60 -10,-60 -60,-85 -58,7 -136,52 -172,99z"/>
   <path class="fil0" d="M13675 4412c57,30 112,268 138,346l242 725c31,91 59,298 110,362l189 -5c-3,-85 -90,-279 -120,-385 -41,-145 -91,-242 -128,-388l-117 -399c-23,-68 -49,-135 -66,-191 -42,-132 -15,-129 -79,-165 -56,7 -134,53 -169,100z"/>
   <path class="fil0" d="M12671 11197c80,9 39,-5 55,-9l-146 -438c-12,-43 -21,-70 -29,-114 -15,-77 -11,-58 -32,-115 -28,-72 -45,-141 -67,-216 -86,0 -171,-10 -252,12 -1,690 -50,598 109,687 87,49 303,186 362,193z"/>
   <path class="fil0" d="M13145 4718c43,23 43,59 58,104 47,146 79,204 112,370 27,133 200,567 208,663l222 -3c-33,-116 -326,-1080 -387,-1223l-44 -10c-57,7 -135,52 -169,99z"/>
   <path class="fil0" d="M15249 9200c36,42 358,221 399,226l34 -9c-2,-4 -5,-9 -6,-11l-56 -170c-22,-124 -114,-396 -157,-520 -32,-93 -218,-606 -214,-669l0 1153z"/>
   <path class="fil0" d="M12560 5055c23,18 254,721 276,802l286 0c-30,-68 -52,-162 -78,-231 -29,-78 -59,-168 -80,-242 -26,-93 -106,-425 -151,-476 -48,5 -97,42 -136,65 -22,12 -42,23 -62,35 -43,27 -23,5 -55,47z"/>
   <path class="fil0" d="M9728 7706l153 3 179 7 241 8 0 821 281 -4 0 -836c-53,4 -12,4 -28,-17l-934 0 108 18z"/>
   <path class="fil0" d="M8105 7698l245 2 233 1 272 5 196 6 173 7 256 5 0 825 248 -2 0 -841 -108 -18c-218,3 -1692,-37 -1756,27 92,-10 130,-18 241,-17z"/>
   <path class="fil0" d="M12671 11197l37 34c50,38 191,121 241,126 120,-3 33,19 61,-40 -44,-37 -59,-193 -74,-255l-210 -629c-13,-45 -33,-83 -38,-127l-236 -1c22,75 39,144 67,216 21,57 17,38 32,115 8,44 17,71 29,114l146 438c-16,4 25,18 -55,9z"/>
   <path class="fil0" d="M10291 7213l0 -862 -109 9c-219,33 -222,261 -221,493 1,238 93,358 330,360z"/>
   <polygon class="fil0" points="13147,7213 13427,7213 13427,6366 13147,6361 "/>
   <path class="fil0" d="M12283 5215c47,39 49,78 65,133 18,62 34,104 56,169 22,65 39,116 57,170 17,53 45,115 50,172l325 -2c-22,-81 -253,-784 -276,-802l-250 132c-21,17 -11,8 -27,28z"/>
   <path class="fil0" d="M13314 4619l44 10c61,143 354,1107 387,1223l189 -4 -224 -668c-19,-66 -20,-111 -43,-181 -22,-65 -37,-108 -57,-169 -9,-27 -102,-314 -108,-319 -48,9 -54,16 -100,43l-88 65z"/>
   <polygon class="fil0" points="10723,8541 11005,8534 11005,7722 10723,7705 "/>
   <polygon class="fil0" points="8583,8551 8855,8550 8855,7706 8583,7701 "/>
   <polygon class="fil0" points="13427,7213 13697,7213 13697,6369 13427,6366 "/>
   <polygon class="fil0" points="12586,7213 12841,7213 12841,6359 12586,6357 "/>
   <polygon class="fil0" points="9224,8550 9480,8549 9480,7724 9224,7719 "/>
   <polygon class="fil0" points="12342,7213 12586,7213 12586,6357 12342,6356 "/>
   <polygon class="fil0" points="8105,8552 8350,8551 8350,7700 8105,7698 "/>
   <polygon class="fil0" points="13058,8548 13306,8545 13306,7718 13058,7703 "/>
   <polygon class="fil0" points="12766,9895 13006,9893 13006,9049 12766,9047 "/>
   <polygon class="fil0" points="10060,8546 10301,8545 10301,7724 10060,7716 "/>
   <polygon class="fil0" points="14059,8529 14301,8529 14301,7717 14059,7700 "/>
   <polygon class="fil0" points="8350,8551 8583,8551 8583,7701 8350,7700 "/>
   <polygon class="fil0" points="14085,7213 14318,7213 14318,6369 14085,6369 "/>
   <path class="fil0" d="M13058 7703l248 15 167 6 0 820 211 -3 1 -846 2 -7 -728 0c43,22 40,16 99,15z"/>
   <polygon class="fil0" points="11398,8529 11632,8529 11632,7714 11398,7704 "/>
   <polygon class="fil0" points="11561,7213 11784,7213 11784,6353 11561,6353 "/>
   <polygon class="fil0" points="11784,7213 12005,7213 12005,6354 11784,6353 "/>
   <polygon class="fil0" points="12543,9896 12766,9895 12766,9047 12543,9046 "/>
   <polygon class="fil0" points="12127,7213 12342,7213 12342,6356 12127,6354 "/>
   <polygon class="fil0" points="11005,8534 11229,8529 11229,7723 11005,7722 "/>
   <polygon class="fil0" points="10928,7213 11136,7213 11136,6352 10928,6351 "/>
   <path class="fil0" d="M7830 8520l77 -5 0 -792 -80 7c-159,21 -173,207 -173,396 0,183 13,379 176,394z"/>
   <polygon class="fil0" points="13877,7213 14085,7213 14085,6369 13877,6369 "/>
   <path class="fil0" d="M7830 8520c9,26 -16,20 34,16 90,25 146,16 241,16l0 -854c-111,-1 -149,7 -241,17 -56,-6 -27,-9 -37,15l80 -7 0 792 -77 5z"/>
   <polygon class="fil0" points="9872,9895 10075,9892 10075,9050 9872,9047 "/>
   <path class="fil0" d="M9751 9046l121 1 203 3 131 3 112 4 99 3 109 0 100 0 116 0 0 822 -116 0 -100 0 -109 0 -99 3 -112 4 -131 3 -203 3 -121 1 -131 -4c54,40 541,16 652,16 127,-1 535,31 596,-44 31,-91 30,-693 0,-786 -64,-69 -494,-42 -612,-43 -113,0 -226,0 -338,0 -88,-1 -261,-30 -320,25l153 -14z"/>
   <path class="fil0" d="M9515 9100c66,4 44,-21 51,55l-27 701c33,42 24,31 81,36l131 4 0 -850 -153 14c-21,-2 3,-15 -45,7 -63,28 -14,3 -38,33z"/>
   <polygon class="fil0" points="8855,8550 9051,8550 9051,7712 8855,7706 "/>
   <polygon class="fil0" points="10444,7213 10635,7213 10635,6351 10444,6351 "/>
   <polygon class="fil0" points="13006,9893 13201,9891 13201,9051 13006,9049 "/>
   <polygon class="fil0" points="13684,8541 13876,8535 13876,7700 13685,7695 "/>
   <polygon class="fil0" points="13201,9891 13393,9888 13393,9053 13201,9051 "/>
   <polygon class="fil0" points="12717,8550 12908,8549 12908,7725 12717,7713 "/>
   <path class="fil0" d="M10582 7705l141 0 282 17 224 1 0 806 169 0 0 -825c-21,1 -43,3 -64,1 -32,-3 1,2 -29,-4 -38,-8 -23,-4 -40,-13l-711 0c16,21 -25,21 28,17z"/>
   <polygon class="fil0" points="13393,9888 13582,9885 13582,9057 13393,9053 "/>
   <path class="fil0" d="M14637 9897c215,-46 236,-195 236,-434 0,-224 -29,-380 -233,-416 23,101 25,758 -3,850z"/>
   <polygon class="fil0" points="12539,8550 12717,8550 12717,7713 12534,7704 "/>
   <polygon class="fil0" points="13876,8535 14059,8529 14059,7700 13876,7700 "/>
   <polygon class="fil0" points="13697,7213 13877,7213 13877,6369 13697,6369 "/>
   <polygon class="fil0" points="9881,8547 10060,8546 10060,7716 9881,7709 "/>
   <path class="fil0" d="M11882 9883l26 5 -3 -838c-189,46 -212,199 -212,413 0,218 13,362 189,420z"/>
   <polygon class="fil0" points="12212,8551 12386,8551 12386,7723 12207,7723 "/>
   <polygon class="fil0" points="9051,8550 9224,8550 9224,7719 9051,7712 "/>
   <polygon class="fil0" points="13960,9882 14133,9882 14133,9060 13960,9060 "/>
   <path class="fil0" d="M12207 7723l179 0 0 828 153 -1 -5 -846 -5 -16 -595 0c5,2 12,0 15,6l127 19c45,3 87,5 131,10z"/>
   <polygon class="fil0" points="12841,7213 13006,7213 13006,6360 12841,6359 "/>
   <path class="fil0" d="M12717 7713l191 12 0 824 150 -1 0 -845c-59,1 -56,7 -99,-15l-430 0 5 16 183 9z"/>
   <polygon class="fil0" points="13306,8545 13473,8544 13473,7724 13306,7718 "/>
   <polygon class="fil0" points="11266,7213 11423,7213 11423,6353 11266,6352 "/>
   <polygon class="fil0" points="10771,7213 10928,7213 10928,6351 10771,6351 "/>
   <path class="fil0" d="M14199 15848c43,-37 21,-264 21,-320l983 -3 0 2989 -983 0 3 -1398 -16 81c-7,256 -18,1233 3,1335l1001 -4c20,-71 22,-2929 1,-3015 -112,-13 -925,-16 -1002,5l-11 330z"/>
   <polygon class="fil0" points="10291,7213 10444,7213 10444,6351 10291,6351 "/>
   <polygon class="fil0" points="11632,8529 11791,8529 11791,7723 11632,7714 "/>
   <polygon class="fil0" points="9728,8547 9881,8547 9881,7709 9728,7706 "/>
   <path class="fil0" d="M12228 5239c-33,119 -15,476 -16,622l299 -2c-5,-57 -33,-119 -50,-172 -18,-54 -35,-105 -57,-170 -22,-65 -38,-107 -56,-169 -16,-55 -18,-94 -65,-133 -38,3 -8,-25 -55,24z"/>
   <path class="fil0" d="M20773 18518l-966 0 -1 -2263c-113,-27 -552,-10 -693,-10l0 -723 2357 0c-13,-7 -9,-9 -37,-15 -5,-1 -30,-2 -30,-2l-2298 8c-16,77 -17,670 1,748l682 5c0,279 -19,2151 9,2262 35,6 915,29 976,-10z"/>
   <polygon class="fil0" points="14268,9882 14415,9882 14415,9060 14268,9060 "/>
   <polygon class="fil0" points="13006,7213 13147,7213 13147,6361 13006,6360 "/>
   <path class="fil0" d="M14691 8530c173,-54 183,-203 183,-404 0,-197 -15,-352 -181,-406l-2 810z"/>
   <polygon class="fil0" points="13816,9882 13960,9882 13960,9060 13816,9060 "/>
   <polygon class="fil0" points="12281,9897 12421,9896 12421,9046 12281,9045 "/>
   <polygon class="fil0" points="11423,7213 11561,7213 11561,6353 11423,6353 "/>
   <polygon class="fil0" points="10582,8541 10723,8541 10723,7705 10582,7705 "/>
   <polygon class="fil0" points="10635,7213 10771,7213 10771,6351 10635,6351 "/>
   <polygon class="fil0" points="11136,7213 11266,7213 11266,6352 11136,6352 "/>
   <polygon class="fil0" points="14133,9882 14268,9882 14268,9060 14133,9060 "/>
   <polygon class="fil0" points="11908,9888 12038,9898 12038,9044 11914,9055 11905,9050 "/>
   <polygon class="fil0" points="12038,9898 12167,9897 12167,9045 12038,9044 "/>
   <polygon class="fil0" points="10075,9892 10206,9889 10206,9053 10075,9050 "/>
   <path class="fil0" d="M9539 9856l27 -701c-7,-76 15,-51 -51,-55 -20,4 -34,-7 -78,60 -78,118 -108,657 102,696z"/>
   <polygon class="fil0" points="12005,7213 12127,7213 12127,6354 12005,6354 "/>
   <polygon class="fil0" points="12421,9896 12543,9896 12543,9046 12421,9046 "/>
   <polygon class="fil0" points="9751,9896 9872,9895 9872,9047 9751,9046 "/>
   <polygon class="fil0" points="12167,9897 12281,9897 12281,9045 12167,9045 "/>
   <polygon class="fil0" points="13698,9883 13816,9882 13816,9060 13698,9060 "/>
   <polygon class="fil0" points="13582,9885 13698,9883 13698,9060 13582,9057 "/>
   <polygon class="fil0" points="10626,9882 10742,9882 10742,9060 10626,9060 "/>
   <polygon class="fil0" points="10206,9889 10318,9885 10318,9057 10206,9053 "/>
   <polygon class="fil0" points="10417,9882 10526,9882 10526,9060 10417,9060 "/>
   <path class="fil0" d="M10868 9864c154,-64 156,-193 156,-401 1,-201 -9,-326 -156,-385 30,93 31,695 0,786z"/>
   <path class="fil0" d="M14734 7159c145,-70 139,-194 140,-387 0,-176 -6,-319 -135,-369l-5 756z"/>
   <polygon class="fil0" points="10526,9882 10626,9882 10626,9060 10526,9060 "/>
   <polygon class="fil0" points="10318,9885 10417,9882 10417,9060 10318,9057 "/>
   <path class="fil0" d="M17809 17283c-63,-43 -1012,-17 -1084,-17l0 -533 924 0c121,1 95,6 127,-21l-1068 6 4 561 1097 4z"/>
   <path class="fil0" d="M17025 4645c-22,56 -11,49 -20,113l112 -52 113 49 -29 -159c-48,1 -77,-4 -118,10 -27,9 -34,21 -58,39z"/>
   <path class="fil0" d="M17018 11549c52,5 97,11 147,-2 71,-19 63,-23 67,-86l-46 -7c-56,6 -4,4 -49,12 -29,6 -8,10 -43,2 -27,-6 -42,-23 -78,-36 -74,-33 -13,-12 -38,13l0 49c13,86 -21,26 40,55z"/>
   <path class="fil0" d="M17025 2478c43,11 4,-6 44,37l96 0c51,-21 5,7 46,-38l-94 -57c-3,2 -39,17 -44,20 -54,30 -22,6 -48,38z"/>
  </g>
 </g>
</svg>
