<svg width="480" height="416" viewBox="0 0 480 416" fill="none" xmlns="http://www.w3.org/2000/svg">
<path d="M240 112V400M240 112C256 48.8401 316.43 16.5901 448 16.0001C450.103 15.9922 452.188 16.4006 454.132 17.2019C456.077 18.0032 457.844 19.1814 459.332 20.6687C460.819 22.156 461.997 23.923 462.798 25.8678C463.6 27.8126 464.008 29.8967 464 32.0001V320C464 324.244 462.314 328.313 459.314 331.314C456.313 334.314 452.244 336 448 336C320 336 270.55 361.81 240 400C209.63 362 160 336 32.0001 336C22.1201 336 16.0001 327.95 16.0001 318.07V32.0001C15.9922 29.8967 16.4006 27.8126 17.2019 25.8678C18.0031 23.923 19.1814 22.156 20.6687 20.6687C22.156 19.1814 23.923 18.0032 25.8678 17.2019C27.8126 16.4006 29.8967 15.9922 32.0001 16.0001C163.57 16.5901 224 48.8401 240 112Z" stroke="white" stroke-width="32" stroke-linecap="round" stroke-linejoin="round"/>
</svg>